<?xml version="1.0" encoding="utf-8"?>
<!-- Generator: Adobe Illustrator 24.3.0, SVG Export Plug-In . SVG Version: 6.00 Build 0)  -->
<svg version="1.1" id="Layer_1" xmlns="http://www.w3.org/2000/svg" xmlns:xlink="http://www.w3.org/1999/xlink" x="0px" y="0px"
	 viewBox="0 0 1140 120" style="enable-background:new 0 0 1140 120;" xml:space="preserve">
<style type="text/css">
	.st0{fill:#91BECB;}
</style>
<g>
	<polygon class="st0" points="14,491.6 40.7,518.3 256.5,518.3 256.5,514.2 41.4,514.2 19.1,491.8 	"/>
	<rect x="263.2" y="514.2" class="st0" width="254.1" height="4.2"/>
	<polygon class="st0" points="316.3,505 316.3,500.8 62.2,500.8 62.2,505 217.6,505 217.6,510.6 447.5,510.6 447.5,505 	"/>
	<rect x="454.2" y="505" class="st0" width="188.1" height="5.6"/>
	<rect x="50.9" y="478.7" class="st0" width="19.6" height="5.1"/>
	<rect x="77.5" y="478.7" class="st0" width="7.4" height="5.1"/>
	<rect x="191.6" y="478.7" class="st0" width="7.4" height="5.1"/>
	<rect x="243.2" y="478.7" class="st0" width="7.4" height="5.1"/>
	<rect x="356.5" y="478.7" class="st0" width="7.4" height="5.1"/>
	<rect x="393.8" y="478.7" class="st0" width="7.4" height="5.1"/>
	<rect x="433.7" y="478.7" class="st0" width="28.9" height="5.1"/>
	<rect x="500.7" y="478.7" class="st0" width="21.9" height="5.1"/>
	<rect x="704.6" y="478.7" class="st0" width="76.9" height="5.1"/>
	<rect x="813.3" y="478.7" class="st0" width="25.2" height="5.1"/>
	<rect x="791.8" y="478.7" class="st0" width="6.9" height="5.1"/>
	<rect x="762.5" y="473.6" class="st0" width="6.9" height="5.1"/>
	<rect x="704.6" y="471.5" class="st0" width="15.5" height="7.2"/>
	<rect x="898.3" y="478.7" class="st0" width="17" height="5.1"/>
	<rect x="957.4" y="478.7" class="st0" width="7.4" height="5.1"/>
	<rect x="937.6" y="469.4" class="st0" width="7.4" height="14.5"/>
	
		<rect x="955.4" y="426.5" transform="matrix(0.7071 0.7071 -0.7071 0.7071 601.3514 -545.4205)" class="st0" width="7.4" height="53.4"/>
	
		<rect x="1094.4" y="437.4" transform="matrix(0.7071 0.7071 -0.7071 0.7071 654.6273 -639.4506)" class="st0" width="9.6" height="66.2"/>
	
		<rect x="931.4" y="447.4" transform="matrix(0.7071 0.7071 -0.7071 0.7071 602.3656 -525.1785)" class="st0" width="7.4" height="34.3"/>
	<rect x="920.4" y="474" class="st0" width="7.4" height="9.9"/>
	<rect x="974.5" y="478.7" class="st0" width="7.4" height="5.1"/>
	
		<rect x="1016" y="474" transform="matrix(0.7071 0.7071 -0.7071 0.7071 638.3165 -579.4194)" class="st0" width="5.1" height="13.7"/>
	
		<rect x="1079.7" y="458.5" transform="matrix(0.7071 0.7071 -0.7071 0.7071 648.3238 -627.9916)" class="st0" width="5.1" height="20.3"/>
	
		<rect x="1062" y="458.5" transform="matrix(0.7071 0.7071 -0.7071 0.7071 643.1569 -615.5177)" class="st0" width="5.1" height="20.3"/>
	
		<rect x="722.2" y="429.1" transform="matrix(0.7071 0.7071 -0.7071 0.7071 533.9963 -379.1964)" class="st0" width="5.1" height="51.8"/>
	<rect x="1055.6" y="474" class="st0" width="5.1" height="13.7"/>
	<rect x="1073.2" y="474" class="st0" width="5.1" height="13.7"/>
	<rect x="620.3" y="478.7" class="st0" width="48.6" height="5.1"/>
	
		<rect x="651.6" y="459.2" transform="matrix(0.7071 -0.7071 0.7071 0.7071 -125.8989 624.0491)" class="st0" width="77.4" height="9.7"/>
	<rect x="482.8" y="478.7" class="st0" width="5.8" height="5.1"/>
	<rect x="216.1" y="478.7" class="st0" width="14.5" height="5.1"/>
	<rect x="95" y="478.7" class="st0" width="81.5" height="5.1"/>
	<rect x="32.6" y="483.8" class="st0" width="636.4" height="13.4"/>
	<rect x="683.9" y="483.8" class="st0" width="181.7" height="13.4"/>
	<rect x="870.9" y="483.8" class="st0" width="208.4" height="13.4"/>
	<polygon class="st0" points="726,466 737.3,466.6 756.5,447.3 745.2,446.6 	"/>
	<polygon class="st0" points="746.3,445 757.6,445.6 766,437.1 754.7,436.5 	"/>
	<rect x="635.2" y="449.8" class="st0" width="14.2" height="25.3"/>
	<rect x="497.4" y="449.8" class="st0" width="14.2" height="25.3"/>
	<rect x="30.8" y="432.9" class="st0" width="38.4" height="38.4"/>
	<polygon class="st0" points="73.8,471.3 112.2,471.3 112.2,450.9 91.9,432.9 73.8,432.9 	"/>
	<rect x="127.4" y="459.4" class="st0" width="36.9" height="4.7"/>
	<rect x="169.2" y="459.4" class="st0" width="43.4" height="4.7"/>
	<rect x="219.9" y="459.4" class="st0" width="10.7" height="4.7"/>
	<rect x="127.4" y="466.6" class="st0" width="6.2" height="4.7"/>
	<rect x="127.4" y="452.1" class="st0" width="11.8" height="4.7"/>
	<rect x="127.4" y="444.9" class="st0" width="21.4" height="4.7"/>
	<rect x="152.3" y="444.9" class="st0" width="41.6" height="4.7"/>
	<rect x="199.1" y="444.9" class="st0" width="51.6" height="4.7"/>
	<rect x="261.3" y="444.9" class="st0" width="12" height="4.7"/>
	<rect x="278.3" y="444.9" class="st0" width="12" height="4.7"/>
	<rect x="300.3" y="444.9" class="st0" width="44.3" height="4.7"/>
	<rect x="144.2" y="452.1" class="st0" width="11.8" height="4.7"/>
	<rect x="201.6" y="452.1" class="st0" width="34.6" height="4.7"/>
	<rect x="240.1" y="452.1" class="st0" width="34.6" height="4.7"/>
	<rect x="277.8" y="452.1" class="st0" width="62.1" height="4.7"/>
	<rect x="345.2" y="452.1" class="st0" width="17.2" height="4.7"/>
	<rect x="374" y="452.1" class="st0" width="69.9" height="4.7"/>
	<rect x="154.5" y="466.6" class="st0" width="22" height="4.7"/>
	<rect x="219.6" y="466.6" class="st0" width="47.9" height="4.7"/>
	<rect x="141.1" y="466.6" class="st0" width="6.2" height="4.7"/>
	<rect x="185.5" y="466.6" class="st0" width="6.2" height="4.7"/>
	<rect x="278.8" y="466.6" class="st0" width="10.9" height="4.7"/>
	<rect x="300.3" y="466.6" class="st0" width="7.5" height="4.7"/>
	<rect x="315.6" y="466.6" class="st0" width="35.8" height="4.7"/>
	<rect x="199" y="466.6" class="st0" width="11.4" height="4.7"/>
	<rect x="236.2" y="459.4" class="st0" width="24.2" height="4.7"/>
	<rect x="522.6" y="449.8" class="st0" width="10" height="25.3"/>
	<rect x="551.5" y="449.8" class="st0" width="10" height="25.3"/>
	<rect x="605.6" y="449.8" class="st0" width="10" height="25.3"/>
	<rect x="588" y="449.8" class="st0" width="5" height="25.3"/>
	<rect x="617.8" y="449.8" class="st0" width="5" height="25.3"/>
	<rect x="490.2" y="449.8" class="st0" width="5" height="25.3"/>
</g>
<g>
	<polygon class="st0" points="1126,71.7 1080.7,26.4 714.2,26.4 714.2,33.5 1079.4,33.5 1117.4,71.5 	"/>
	
		<rect x="59.3" y="26.4" transform="matrix(-1 -1.224647e-16 1.224647e-16 -1 762.1985 59.8837)" class="st0" width="643.6" height="7"/>
	<polygon class="st0" points="487.2,49.1 487.2,56.1 801.2,56.1 801.2,49.1 654.8,49.1 654.8,39.5 390,39.5 390,49.1 	"/>
	
		<rect x="59.3" y="39.5" transform="matrix(-1 -1.224647e-16 1.224647e-16 -1 438.0091 88.5775)" class="st0" width="319.4" height="9.6"/>
	
		<rect x="798.9" y="84.9" transform="matrix(-1 -1.224647e-16 1.224647e-16 -1 1630.9806 178.5602)" class="st0" width="33.2" height="8.7"/>
	
		<rect x="774.5" y="84.9" transform="matrix(-1 -1.224647e-16 1.224647e-16 -1 1561.5114 178.5602)" class="st0" width="12.6" height="8.7"/>
	<rect x="710.6" y="84.9" class="st0" width="101.3" height="8.7"/>
	
		<rect x="610.4" y="84.9" transform="matrix(-1 -1.224647e-16 1.224647e-16 -1 1233.4666 178.5602)" class="st0" width="12.6" height="8.7"/>
	
		<rect x="532" y="84.9" transform="matrix(-1 -1.224647e-16 1.224647e-16 -1 1076.5717 178.5602)" class="st0" width="12.6" height="8.7"/>
	
		<rect x="468.6" y="84.9" transform="matrix(-1 -1.224647e-16 1.224647e-16 -1 949.7149 178.5602)" class="st0" width="12.6" height="8.7"/>
	
		<rect x="364.4" y="84.9" transform="matrix(-1 -1.224647e-16 1.224647e-16 -1 777.8039 178.5602)" class="st0" width="49.1" height="8.7"/>
	
		<rect x="262.4" y="84.9" transform="matrix(-1 -1.224647e-16 1.224647e-16 -1 562.0971 178.5602)" class="st0" width="37.3" height="8.7"/>
	
		<rect x="14" y="84.9" transform="matrix(-1 -1.224647e-16 1.224647e-16 -1 110.5476 178.5602)" class="st0" width="82.6" height="8.7"/>
	
		<rect x="320.3" y="84.9" transform="matrix(-1 -1.224647e-16 1.224647e-16 -1 650.4438 178.5602)" class="st0" width="9.8" height="8.7"/>
	
		<rect x="644.4" y="84.9" transform="matrix(-1 -1.224647e-16 1.224647e-16 -1 1313.5071 178.5602)" class="st0" width="24.7" height="8.7"/>
	
		<rect x="736.3" y="84.9" transform="matrix(-1 -1.224647e-16 1.224647e-16 -1 1493.6383 178.5602)" class="st0" width="21.1" height="8.7"/>
	
		<rect x="14" y="62.2" transform="matrix(-1 -1.224647e-16 1.224647e-16 -1 877.3082 147.0978)" class="st0" width="849.3" height="22.8"/>
	<polyline class="st0" points="1095.5,86.1 1095.5,64.9 1083.6,64.9 1083.6,86.1 	"/>
	<polygon class="st0" points="870.6,84.7 894.3,84.7 894.3,72.1 881.8,61 870.6,61 	"/>
	<rect x="903.3" y="80.4" class="st0" width="6.9" height="5.3"/>
	<rect x="903.3" y="72.9" class="st0" width="13.3" height="5.3"/>
	<rect x="903.3" y="64.7" class="st0" width="24.2" height="5.3"/>
	<rect x="931.4" y="64.7" class="st0" width="46.9" height="5.3"/>
	<rect x="984.2" y="64.7" class="st0" width="58.1" height="5.3"/>
	<rect x="1054.5" y="64.7" class="st0" width="13.5" height="5.3"/>
	<rect x="922.4" y="72.9" class="st0" width="13.3" height="5.3"/>
	<rect x="987.1" y="72.9" class="st0" width="39" height="5.3"/>
	<rect x="1030.6" y="72.9" class="st0" width="39" height="5.3"/>
	<rect x="933.9" y="80.4" class="st0" width="24.8" height="5.3"/>
	<rect x="1007.4" y="80.4" class="st0" width="54" height="5.3"/>
	<rect x="918.9" y="80.4" class="st0" width="6.9" height="5.3"/>
	<rect x="968.9" y="80.4" class="st0" width="6.9" height="5.3"/>
	<rect x="984.2" y="80.4" class="st0" width="12.9" height="5.3"/>
	<polyline class="st0" points="1081.8,86.1 1081.8,64.9 1077.6,64.9 1077.6,86.1 	"/>
</g>
</svg>
