<?xml version="1.0" encoding="utf-8"?>
<!-- Generator: Adobe Illustrator 24.3.0, SVG Export Plug-In . SVG Version: 6.00 Build 0)  -->
<svg version="1.1" id="Layer_1" xmlns="http://www.w3.org/2000/svg" xmlns:xlink="http://www.w3.org/1999/xlink" x="0px" y="0px"
	 viewBox="0 0 1140 120" style="enable-background:new 0 0 1140 120;" xml:space="preserve">
<style type="text/css">
	.st0{fill:#A00495;}
	.st1{fill:#91BECB;}
</style>
<g>
	<polygon class="st0" points="1102.1,-356.3 1062,-396.4 737.1,-396.4 737.1,-390.2 1060.9,-390.2 1094.6,-356.5 	"/>
	
		<rect x="344.5" y="-396.4" transform="matrix(-1 -1.224647e-16 1.224647e-16 -1 1071.5612 -786.6503)" class="st0" width="382.5" height="6.2"/>
	<polygon class="st0" points="647.1,-376.4 647.1,-370.1 1029.6,-370.1 1029.6,-376.4 795.8,-376.4 795.8,-384.8 449.6,-384.8 
		449.6,-376.4 	"/>
	
		<rect x="156.4" y="-384.8" transform="matrix(-1 -1.224647e-16 1.224647e-16 -1 596.0212 -761.2109)" class="st0" width="283.2" height="8.5"/>
	
		<rect x="1017.1" y="-344.6" transform="matrix(-1 -1.224647e-16 1.224647e-16 -1 2063.7014 -681.4335)" class="st0" width="29.5" height="7.7"/>
	
		<rect x="995.5" y="-344.6" transform="matrix(-1 -1.224647e-16 1.224647e-16 -1 2002.1111 -681.4335)" class="st0" width="11.2" height="7.7"/>
	
		<rect x="823.6" y="-344.6" transform="matrix(-1 -1.224647e-16 1.224647e-16 -1 1658.4548 -681.4335)" class="st0" width="11.2" height="7.7"/>
	
		<rect x="746" y="-344.6" transform="matrix(-1 -1.224647e-16 1.224647e-16 -1 1503.14 -681.4335)" class="st0" width="11.2" height="7.7"/>
	
		<rect x="575.5" y="-344.6" transform="matrix(-1 -1.224647e-16 1.224647e-16 -1 1162.1615 -681.4335)" class="st0" width="11.2" height="7.7"/>
	
		<rect x="519.3" y="-344.6" transform="matrix(-1 -1.224647e-16 1.224647e-16 -1 1049.6921 -681.4335)" class="st0" width="11.2" height="7.7"/>
	
		<rect x="426.9" y="-344.6" transform="matrix(-1 -1.224647e-16 1.224647e-16 -1 897.2783 -681.4335)" class="st0" width="43.5" height="7.7"/>
	
		<rect x="336.5" y="-344.6" transform="matrix(-1 -1.224647e-16 1.224647e-16 -1 706.0358 -681.4335)" class="st0" width="33" height="7.7"/>
	
		<rect x="116.3" y="-344.6" transform="matrix(-1 -1.224647e-16 1.224647e-16 -1 305.6985 -681.4335)" class="st0" width="73.2" height="7.7"/>
	
		<rect x="25.8" y="-322" transform="matrix(-0.7071 0.7071 -0.7071 -0.7071 -79.0315 -596.6588)" class="st0" width="116.6" height="14.5"/>
	
		<rect x="387.8" y="-344.6" transform="matrix(-1 -1.224647e-16 1.224647e-16 -1 784.3627 -681.4335)" class="st0" width="8.7" height="7.7"/>
	
		<rect x="776.1" y="-344.6" transform="matrix(-1 -1.224647e-16 1.224647e-16 -1 1574.1028 -681.4335)" class="st0" width="21.9" height="7.7"/>
	
		<rect x="857.6" y="-344.6" transform="matrix(-1 -1.224647e-16 1.224647e-16 -1 1837.8702 -681.4335)" class="st0" width="122.7" height="7.7"/>
	
		<rect x="116.3" y="-364.8" transform="matrix(-1 -1.224647e-16 1.224647e-16 -1 1190.502 -709.3276)" class="st0" width="958" height="20.2"/>
</g>
<g>
	<polygon class="st1" points="14,76.6 40.7,103.3 256.5,103.3 256.5,99.2 41.4,99.2 19.1,76.8 	"/>
	<rect x="263.2" y="99.2" class="st1" width="254.1" height="4.2"/>
	<polygon class="st1" points="316.3,90 316.3,85.8 62.2,85.8 62.2,90 217.6,90 217.6,95.6 447.5,95.6 447.5,90 	"/>
	<rect x="454.2" y="90" class="st1" width="188.1" height="5.6"/>
	<rect x="50.9" y="63.7" class="st1" width="19.6" height="5.1"/>
	<rect x="77.5" y="63.7" class="st1" width="7.4" height="5.1"/>
	<rect x="191.6" y="63.7" class="st1" width="7.4" height="5.1"/>
	<rect x="243.2" y="63.7" class="st1" width="7.4" height="5.1"/>
	<rect x="356.5" y="63.7" class="st1" width="7.4" height="5.1"/>
	<rect x="393.8" y="63.7" class="st1" width="7.4" height="5.1"/>
	<rect x="433.7" y="63.7" class="st1" width="28.9" height="5.1"/>
	<rect x="500.7" y="63.7" class="st1" width="21.9" height="5.1"/>
	<rect x="704.6" y="63.7" class="st1" width="76.9" height="5.1"/>
	<rect x="813.3" y="63.7" class="st1" width="25.2" height="5.1"/>
	<rect x="791.8" y="63.7" class="st1" width="6.9" height="5.1"/>
	<rect x="762.5" y="58.6" class="st1" width="6.9" height="5.1"/>
	<rect x="704.6" y="56.5" class="st1" width="15.5" height="7.2"/>
	<rect x="898.3" y="63.7" class="st1" width="17" height="5.1"/>
	<rect x="957.4" y="63.7" class="st1" width="7.4" height="5.1"/>
	<rect x="937.6" y="54.4" class="st1" width="7.4" height="14.5"/>
	
		<rect x="955.4" y="11.5" transform="matrix(0.7071 0.7071 -0.7071 0.7071 307.9144 -666.9661)" class="st1" width="7.4" height="53.4"/>
	
		<rect x="1094.4" y="22.4" transform="matrix(0.7071 0.7071 -0.7071 0.7071 361.1902 -760.9963)" class="st1" width="9.6" height="66.2"/>
	
		<rect x="931.4" y="32.4" transform="matrix(0.7071 0.7071 -0.7071 0.7071 308.9285 -646.7242)" class="st1" width="7.4" height="34.3"/>
	<rect x="920.4" y="59" class="st1" width="7.4" height="9.9"/>
	<rect x="974.5" y="63.7" class="st1" width="7.4" height="5.1"/>
	
		<rect x="1016" y="59" transform="matrix(0.7071 0.7071 -0.7071 0.7071 344.8793 -700.965)" class="st1" width="5.1" height="13.7"/>
	
		<rect x="1079.7" y="43.5" transform="matrix(0.7071 0.7071 -0.7071 0.7071 354.8867 -749.5372)" class="st1" width="5.1" height="20.3"/>
	
		<rect x="1062" y="43.5" transform="matrix(0.7071 0.7071 -0.7071 0.7071 349.7198 -737.0634)" class="st1" width="5.1" height="20.3"/>
	
		<rect x="722.2" y="14.1" transform="matrix(0.7071 0.7071 -0.7071 0.7071 240.5592 -500.742)" class="st1" width="5.1" height="51.8"/>
	<rect x="1055.6" y="59" class="st1" width="5.1" height="13.7"/>
	<rect x="1073.2" y="59" class="st1" width="5.1" height="13.7"/>
	<rect x="620.3" y="63.7" class="st1" width="48.6" height="5.1"/>
	
		<rect x="651.6" y="44.2" transform="matrix(0.7071 -0.7071 0.7071 0.7071 167.5381 502.5035)" class="st1" width="77.4" height="9.7"/>
	<rect x="482.8" y="63.7" class="st1" width="5.8" height="5.1"/>
	<rect x="216.1" y="63.7" class="st1" width="14.5" height="5.1"/>
	<rect x="95" y="63.7" class="st1" width="81.5" height="5.1"/>
	<rect x="32.6" y="68.9" class="st1" width="636.4" height="13.4"/>
	<rect x="683.9" y="68.9" class="st1" width="181.7" height="13.4"/>
	<rect x="870.9" y="68.9" class="st1" width="208.4" height="13.4"/>
	<polygon class="st1" points="726,51 737.3,51.6 756.5,32.3 745.2,31.7 	"/>
	<polygon class="st1" points="746.3,30 757.6,30.6 766,22.2 754.7,21.6 	"/>
	<rect x="635.2" y="34.8" class="st1" width="14.2" height="25.3"/>
	<rect x="497.4" y="34.8" class="st1" width="14.2" height="25.3"/>
	<rect x="30.8" y="17.9" class="st1" width="38.4" height="38.4"/>
	<polygon class="st1" points="73.8,56.3 112.2,56.3 112.2,35.9 91.9,17.9 73.8,17.9 	"/>
	<rect x="127.4" y="44.4" class="st1" width="36.9" height="4.7"/>
	<rect x="169.2" y="44.4" class="st1" width="43.4" height="4.7"/>
	<rect x="219.9" y="44.4" class="st1" width="10.7" height="4.7"/>
	<rect x="127.4" y="51.7" class="st1" width="6.2" height="4.7"/>
	<rect x="127.4" y="37.1" class="st1" width="11.8" height="4.7"/>
	<rect x="127.4" y="29.9" class="st1" width="21.4" height="4.7"/>
	<rect x="152.3" y="29.9" class="st1" width="41.6" height="4.7"/>
	<rect x="199.1" y="29.9" class="st1" width="51.6" height="4.7"/>
	<rect x="261.3" y="29.9" class="st1" width="12" height="4.7"/>
	<rect x="278.3" y="29.9" class="st1" width="12" height="4.7"/>
	<rect x="300.3" y="29.9" class="st1" width="44.3" height="4.7"/>
	<rect x="144.2" y="37.1" class="st1" width="11.8" height="4.7"/>
	<rect x="201.6" y="37.1" class="st1" width="34.6" height="4.7"/>
	<rect x="240.1" y="37.1" class="st1" width="34.6" height="4.7"/>
	<rect x="277.8" y="37.1" class="st1" width="62.1" height="4.7"/>
	<rect x="345.2" y="37.1" class="st1" width="17.2" height="4.7"/>
	<rect x="374" y="37.1" class="st1" width="69.9" height="4.7"/>
	<rect x="154.5" y="51.7" class="st1" width="22" height="4.7"/>
	<rect x="219.6" y="51.7" class="st1" width="47.9" height="4.7"/>
	<rect x="141.1" y="51.7" class="st1" width="6.2" height="4.7"/>
	<rect x="185.5" y="51.7" class="st1" width="6.2" height="4.7"/>
	<rect x="278.8" y="51.7" class="st1" width="10.9" height="4.7"/>
	<rect x="300.3" y="51.7" class="st1" width="7.5" height="4.7"/>
	<rect x="315.6" y="51.7" class="st1" width="35.8" height="4.7"/>
	<rect x="199" y="51.7" class="st1" width="11.4" height="4.7"/>
	<rect x="236.2" y="44.4" class="st1" width="24.2" height="4.7"/>
	<rect x="522.6" y="34.8" class="st1" width="10" height="25.3"/>
	<rect x="551.5" y="34.8" class="st1" width="10" height="25.3"/>
	<rect x="605.6" y="34.8" class="st1" width="10" height="25.3"/>
	<rect x="588" y="34.8" class="st1" width="5" height="25.3"/>
	<rect x="617.8" y="34.8" class="st1" width="5" height="25.3"/>
	<rect x="490.2" y="34.8" class="st1" width="5" height="25.3"/>
</g>
</svg>
