<?xml version="1.0" encoding="utf-8"?>
<!-- Generator: Adobe Illustrator 24.3.0, SVG Export Plug-In . SVG Version: 6.00 Build 0)  -->
<svg version="1.1" id="Layer_1" xmlns="http://www.w3.org/2000/svg" xmlns:xlink="http://www.w3.org/1999/xlink" x="0px" y="0px"
	 viewBox="0 0 300 300" style="enable-background:new 0 0 300 300;" xml:space="preserve">
<style type="text/css">
	.st0{fill:#91BECB;}
</style>
<g>
	<circle class="st0" cx="114.4" cy="191.5" r="9.6"/>
	<circle class="st0" cx="181.2" cy="191.5" r="9.6"/>
	<path class="st0" d="M194.7,214.3c1.2,0,2.1,0.9,2.2,2.1v34c0,0.5,0,1.1,0.1,1.6c0.7,4.5,5.8,27.7,35,36.9c1,0.3,2,0.5,3.1,0.5
		h21.4c5.7,0,10.3-4.6,10.3-10.3v-3c0-1.5-0.3-2.9-0.9-4.2c-1.3-2.8-4.1-6.8-10.4-10.2c-1.5-0.8-3.2-1.2-4.9-1.2h-11.7
		c-0.1,0-0.3,0-0.4,0c-2.6-0.5-11.2-2.8-14.3-12.9c0-0.1-0.1-0.3-0.1-0.6v-40.5c0-1.5-0.3-2.9-0.9-4.2c-1.5-3.4-7-13.7-18.7-15.5
		c-0.8-4.2-2.7-8.2-5.8-11.5c-3.5-3.8-8.1-6.3-13.1-7.2V110H209c1.5,0,2.9-0.8,3.6-2.2c0.7-1.3,0.6-2.9-0.2-4.2l-61.6-91.1
		c-0.8-1.1-2-1.8-3.4-1.8c-1.4,0-2.6,0.7-3.4,1.8l-60,91.1c-0.8,1.2-0.9,2.8-0.2,4.1s2.1,2.1,3.6,2.1h23.4v58.1
		c-5,0.9-9.6,3.4-13.1,7.2c-3.2,3.5-5.2,7.7-5.9,12.3c-9.2,3.1-13.8,11.6-15.1,14.6c-0.6,1.3-0.9,2.7-0.9,4.2v40.5
		c0,0.3,0,0.5-0.1,0.6c-3,10.2-11.7,12.5-14.3,12.9c-0.1,0-0.2,0-0.4,0H49.4c-1.7,0-3.4,0.4-4.9,1.2c-6.3,3.4-9.1,7.4-10.4,10.2
		c-0.6,1.3-0.9,2.7-0.9,4.2v3c0,5.7,4.6,10.3,10.3,10.3h21.4c1.1,0,2.1-0.2,3.1-0.5c29.3-9.2,34.3-32.3,35-36.9
		c0.1-0.5,0.1-1,0.1-1.6v-33.9v-0.1c0-1.1,1-2,2.2-2l8.3,0v47c0,0,0,0.1,0,0.1c0,0-0.1,0-0.2,0.1c-14,0.1-18.1,8.5-18.4,12.9
		c0,0.1,0,0.1,0,0.2v10.6c0,2.2,1.8,4.1,4.1,4.1h21.3c0.3,0,0.6,0,0.9-0.1c16.9-3.6,18.9-22,19-22.8c0-0.1,0-0.3,0-0.4v-51.7h19.6
		v51.7c0,0.1,0,0.3,0,0.4c0.1,0.8,2.1,19.2,19,22.8c0.3,0.1,0.6,0.1,0.9,0.1H201c2.2,0,4.1-1.8,4.1-4.1v-10.6c0-0.1,0-0.1,0-0.2
		c-0.2-4.4-4.4-12.8-18.4-12.9c-0.1,0-0.1,0-0.2-0.1c0,0,0-0.1,0-0.1v-47L194.7,214.3L194.7,214.3z M196.8,192.3
		c-0.6,6.7-5.5,12.2-12.1,13.6c-2.6,0.5-5.3,0.4-7.8-0.5l0,0l0,0c-6.2-2.1-10.4-7.9-10.4-14.4c0-8.4,6.8-15.2,15.2-15.2
		c4.2,0,8.3,1.8,11.2,4.9C195.8,183.9,197.2,188,196.8,192.3z M118.9,168.1V110h58.7v58.1c-10.9,1.9-19.2,11.5-19.2,22.9
		c0,5.3,1.8,10.2,4.8,14.2h-29.9c3.1-4,4.8-8.9,4.8-14.2C138.2,179.6,129.8,170,118.9,168.1z M122.4,101.9L147.8,63l26.3,38.9
		L122.4,101.9L122.4,101.9z M147.4,22.1l53.9,79.8h-17.5l-32.7-48.5c-0.8-1.1-2.1-1.8-3.4-1.8c-1.4,0-2.6,0.7-3.4,1.8l-31.7,48.4
		H94.9L147.4,22.1z M95,216.2v34.1c0,0.1,0,0.2,0,0.3c-0.6,3.7-4.8,22.6-29.5,30.4c-0.2,0.1-0.4,0.1-0.6,0.1H43.5
		c-1.2,0-2.2-1-2.2-2.2v-3c0-0.3,0.1-0.6,0.2-0.9c0.6-1.3,2.3-4,6.9-6.4c0.3-0.2,0.7-0.3,1-0.3h11.7c0.6,0,1.2-0.1,1.8-0.2
		c7.7-1.4,17.2-7,20.6-18.6c0.3-0.9,0.4-1.9,0.4-2.9v-40.5c0-0.3,0.1-0.6,0.2-0.9c1-2.3,3.5-6.8,8.1-9.3c1.1,4.6,3.6,8.8,7,11.9
		C96.7,210,95,212.9,95,216.2z M99.7,192.3c-0.4-4.3,1-8.4,3.9-11.6c2.9-3.1,6.9-4.9,11.2-4.9c8.4,0,15.2,6.8,15.2,15.2
		c0,6.5-4.2,12.3-10.4,14.4l0,0l0,0c-2.6,0.9-5.2,1-7.8,0.5C105.3,204.6,100.3,199,99.7,192.3z M132.1,265.7
		c-0.2,1.5-2.1,13-12.2,15.4h-16.8v-6.4c0.1-0.9,1.3-5.3,10.6-5.3c0.1,0,0.2,0,0.3,0c3-0.3,7.6-2.7,7.6-8.2v-47h10.4V265.7
		L132.1,265.7z M178.4,214.3v47c0,5.6,4.5,8,7.6,8.2c0.1,0,0.2,0,0.3,0c9.3,0,10.5,4.4,10.6,5.3v6.4h-16.8
		c-10.2-2.5-12-13.8-12.2-15.4v-51.4L178.4,214.3L178.4,214.3z M258.7,279c0,1.2-1,2.2-2.2,2.2h-21.4c-0.2,0-0.4,0-0.6-0.1
		c-24.7-7.8-28.9-26.7-29.5-30.4c0-0.1,0-0.2,0-0.3v-33.9v-0.2c-0.1-4.2-2.7-7.7-6.4-9.2c3.1-3.3,5.2-7.4,6-12
		c6.6,1.7,10,7.7,11.2,10.5c0.1,0.3,0.2,0.6,0.2,0.9v40.5c0,1,0.1,2,0.4,2.9c3.5,11.6,12.9,17.2,20.6,18.6c0.6,0.1,1.2,0.2,1.8,0.2
		h11.7c0.4,0,0.7,0.1,1,0.3c4.5,2.4,6.2,5.1,6.9,6.4c0.1,0.3,0.2,0.6,0.2,0.9L258.7,279L258.7,279z"/>
</g>
</svg>
