<?xml version="1.0" encoding="utf-8"?>
<!-- Generator: Adobe Illustrator 24.3.0, SVG Export Plug-In . SVG Version: 6.00 Build 0)  -->
<svg version="1.1" id="Layer_1" xmlns="http://www.w3.org/2000/svg" xmlns:xlink="http://www.w3.org/1999/xlink" x="0px" y="0px"
	 viewBox="0 0 766.6 333.5" style="enable-background:new 0 0 766.6 333.5;" xml:space="preserve">
<style type="text/css">
	.st0{display:none;}
	.st1{fill:none;}
	.st2{fill:#8C4242;}
	.st3{fill:#FFFFFF;}
	.st4{fill:none;stroke:#91BECB;stroke-width:3;stroke-miterlimit:10;}
	.st5{fill:#91BECB;}
	.st6{fill:none;stroke:#FFFFFF;stroke-width:3;stroke-miterlimit:10;}
</style>
<g id="Layer_1_1_" class="st0">
	
		<image style="display:inline;overflow:visible;enable-background:new    ;" width="1366" height="768" xlink:href="logo wayland.png"  transform="matrix(1.418 0 0 1.418 -575.68 -381.24)">
	</image>
</g>
<polygon class="st1" points="-1643.7,464.3 -1539.7,464.3 -1428.7,577.3 -1315.2,463.8 -1250.2,463.8 -1138.2,577.8 -1025.2,463.8 
	-922.2,463.8 -922.2,480.8 -1091.2,649.8 -1170.2,649.8 -1282.2,536.8 -1396.2,649.8 -1474.2,649.8 -1643.2,480.8 "/>
<polygon class="st1" points="-1712.8,116.8 -1712.8,99.8 -1613.8,99.8 -1600.8,112.8 -1600.8,117.8 -1656.8,172.8 "/>
<polygon class="st1" points="-1309.8,116.8 -1309.8,99.8 -1408.8,99.8 -1421.8,112.8 -1421.8,117.8 -1365.8,172.8 "/>
<polygon class="st1" points="-1567.8,284.8 -1567.8,268.8 -1511.8,211.8 -1454.8,268.8 -1454.8,284.8 "/>
<g>
	<polygon class="st2" points="88.6,1297.6 192.6,1297.6 303.6,1410.6 417.1,1297.1 482.1,1297.1 594.1,1411.1 707.1,1297.1 
		810.1,1297.1 810.1,1314.1 641.1,1483.1 562.1,1483.1 450.1,1370.1 336.1,1483.1 258.1,1483.1 88.6,1313.6 	"/>
	<polygon class="st2" points="248.1,1315.1 248.1,1298.1 347.1,1298.1 360.1,1311.1 360.1,1316.1 304.1,1371.1 	"/>
	<polygon class="st2" points="651.1,1315.1 651.1,1298.1 552.1,1298.1 539.1,1311.1 539.1,1316.1 595.1,1371.1 	"/>
	<polygon class="st2" points="393.1,1483.1 393.1,1467.1 449.1,1410.1 506.1,1467.1 506.1,1483.1 	"/>
</g>
<g>
	<g>
		<g>
			<polygon class="st3" points="-67.8,-1651 -54.1,-1651 -39.4,-1636 -24.4,-1651 -15.8,-1651 -1,-1636 13.9,-1651 27.5,-1651 
				27.5,-1648.8 5.2,-1626.5 -5.3,-1626.5 -20.1,-1641.4 -35.1,-1626.5 -45.4,-1626.5 -67.8,-1648.8 			"/>
			<polygon class="st3" points="-46.8,-1648.7 -46.8,-1650.9 -33.7,-1650.9 -32,-1649.2 -32,-1648.5 -39.4,-1641.3 			"/>
			<polygon class="st3" points="6.5,-1648.7 6.5,-1650.9 -6.6,-1650.9 -8.3,-1649.2 -8.3,-1648.5 -0.9,-1641.3 			"/>
			<polygon class="st3" points="-27.6,-1626.5 -27.6,-1628.6 -20.2,-1636.1 -12.7,-1628.6 -12.7,-1626.5 			"/>
		</g>
	</g>
</g>
<g>
	<g>
		<g>
			<polygon class="st3" points="48.8,-1651 62.5,-1651 77.2,-1636 92.2,-1651 100.8,-1651 115.6,-1636 130.5,-1651 144.1,-1651 
				144.1,-1648.8 121.8,-1626.5 111.4,-1626.5 96.6,-1641.4 81.5,-1626.5 71.2,-1626.5 48.8,-1648.8 			"/>
			<polygon class="st3" points="69.9,-1648.7 69.9,-1650.9 83,-1650.9 84.7,-1649.2 84.7,-1648.5 77.3,-1641.3 			"/>
			<polygon class="st3" points="123.1,-1648.7 123.1,-1650.9 110.1,-1650.9 108.3,-1649.2 108.3,-1648.5 115.7,-1641.3 			"/>
			<polygon class="st3" points="89,-1626.5 89,-1628.6 96.4,-1636.1 104,-1628.6 104,-1626.5 			"/>
		</g>
	</g>
</g>
<g>
	<g>
		<g>
			<polygon class="st3" points="165.4,-1651 179.2,-1651 193.9,-1636 208.9,-1651 217.4,-1651 232.2,-1636 247.2,-1651 260.8,-1651 
				260.8,-1648.8 238.5,-1626.5 228,-1626.5 213.2,-1641.4 198.2,-1626.5 187.8,-1626.5 165.4,-1648.8 			"/>
			<polygon class="st3" points="186.5,-1648.7 186.5,-1650.9 199.6,-1650.9 201.3,-1649.2 201.3,-1648.5 193.9,-1641.3 			"/>
			<polygon class="st3" points="239.8,-1648.7 239.8,-1650.9 226.7,-1650.9 225,-1649.2 225,-1648.5 232.4,-1641.3 			"/>
			<polygon class="st3" points="205.7,-1626.5 205.7,-1628.6 213.1,-1636.1 220.6,-1628.6 220.6,-1626.5 			"/>
		</g>
	</g>
</g>
<g>
	<g>
		<g>
			<polygon class="st3" points="282.1,-1651 295.8,-1651 310.5,-1636 325.5,-1651 334.1,-1651 348.9,-1636 363.8,-1651 377.4,-1651 
				377.4,-1648.8 355.1,-1626.5 344.7,-1626.5 329.9,-1641.4 314.8,-1626.5 304.5,-1626.5 282.1,-1648.8 			"/>
			<polygon class="st3" points="303.2,-1648.7 303.2,-1650.9 316.2,-1650.9 318,-1649.2 318,-1648.5 310.6,-1641.3 			"/>
			<polygon class="st3" points="356.4,-1648.7 356.4,-1650.9 343.3,-1650.9 341.6,-1649.2 341.6,-1648.5 349,-1641.3 			"/>
			<polygon class="st3" points="322.3,-1626.5 322.3,-1628.6 329.7,-1636.1 337.3,-1628.6 337.3,-1626.5 			"/>
		</g>
	</g>
</g>
<g>
	<g>
		<g>
			<polygon class="st3" points="398.7,-1651 412.5,-1651 427.1,-1636 442.1,-1651 450.7,-1651 465.5,-1636 480.5,-1651 494.1,-1651 
				494.1,-1648.8 471.7,-1626.5 461.3,-1626.5 446.5,-1641.4 431.4,-1626.5 421.1,-1626.5 398.7,-1648.8 			"/>
			<polygon class="st3" points="419.8,-1648.7 419.8,-1650.9 432.9,-1650.9 434.6,-1649.2 434.6,-1648.5 427.2,-1641.3 			"/>
			<polygon class="st3" points="473.1,-1648.7 473.1,-1650.9 460,-1650.9 458.3,-1649.2 458.3,-1648.5 465.7,-1641.3 			"/>
			<polygon class="st3" points="439,-1626.5 439,-1628.6 446.4,-1636.1 453.9,-1628.6 453.9,-1626.5 			"/>
		</g>
	</g>
</g>
<g>
	<g>
		<g>
			<polygon class="st3" points="515.4,-1651 529.1,-1651 543.8,-1636 558.8,-1651 567.4,-1651 582.2,-1636 597.1,-1651 610.7,-1651 
				610.7,-1648.8 588.4,-1626.5 577.9,-1626.5 563.1,-1641.4 548.1,-1626.5 537.8,-1626.5 515.4,-1648.8 			"/>
			<polygon class="st3" points="536.4,-1648.7 536.4,-1650.9 549.5,-1650.9 551.2,-1649.2 551.2,-1648.5 543.8,-1641.3 			"/>
			<polygon class="st3" points="589.7,-1648.7 589.7,-1650.9 576.6,-1650.9 574.9,-1649.2 574.9,-1648.5 582.3,-1641.3 			"/>
			<polygon class="st3" points="555.6,-1626.5 555.6,-1628.6 563,-1636.1 570.5,-1628.6 570.5,-1626.5 			"/>
		</g>
	</g>
</g>
<g>
	<g>
		<g>
			<polygon class="st3" points="-126.1,-1605.6 -112.4,-1605.6 -97.7,-1590.7 -82.7,-1605.7 -74.1,-1605.7 -59.3,-1590.6 
				-44.4,-1605.7 -30.8,-1605.7 -30.8,-1603.4 -53.1,-1581.1 -63.6,-1581.1 -78.4,-1596 -93.4,-1581.1 -103.7,-1581.1 
				-126.1,-1603.5 			"/>
			<polygon class="st3" points="-105,-1603.3 -105,-1605.5 -92,-1605.5 -90.2,-1603.8 -90.2,-1603.2 -97.6,-1595.9 			"/>
			<polygon class="st3" points="-51.8,-1603.3 -51.8,-1605.5 -64.9,-1605.5 -66.6,-1603.8 -66.6,-1603.2 -59.2,-1595.9 			"/>
			<polygon class="st3" points="-85.9,-1581.1 -85.9,-1583.2 -78.5,-1590.7 -71,-1583.2 -71,-1581.1 			"/>
		</g>
	</g>
</g>
<g>
	<g>
		<g>
			<polygon class="st3" points="-9.5,-1605.6 4.3,-1605.6 18.9,-1590.7 33.9,-1605.7 42.5,-1605.7 57.3,-1590.6 72.2,-1605.7 
				85.9,-1605.7 85.9,-1603.4 63.5,-1581.1 53.1,-1581.1 38.3,-1596 23.2,-1581.1 12.9,-1581.1 -9.5,-1603.5 			"/>
			<polygon class="st3" points="11.6,-1603.3 11.6,-1605.5 24.7,-1605.5 26.4,-1603.8 26.4,-1603.2 19,-1595.9 			"/>
			<polygon class="st3" points="64.8,-1603.3 64.8,-1605.5 51.8,-1605.5 50,-1603.8 50,-1603.2 57.4,-1595.9 			"/>
			<polygon class="st3" points="30.8,-1581.1 30.8,-1583.2 38.2,-1590.7 45.7,-1583.2 45.7,-1581.1 			"/>
		</g>
	</g>
</g>
<g>
	<g>
		<g>
			<polygon class="st3" points="107.2,-1605.6 120.9,-1605.6 135.6,-1590.7 150.6,-1605.7 159.2,-1605.7 174,-1590.6 188.9,-1605.7 
				202.5,-1605.7 202.5,-1603.4 180.2,-1581.1 169.7,-1581.1 154.9,-1596 139.9,-1581.1 129.6,-1581.1 107.2,-1603.5 			"/>
			<polygon class="st3" points="128.2,-1603.3 128.2,-1605.5 141.3,-1605.5 143,-1603.8 143,-1603.2 135.6,-1595.9 			"/>
			<polygon class="st3" points="181.5,-1603.3 181.5,-1605.5 168.4,-1605.5 166.7,-1603.8 166.7,-1603.2 174.1,-1595.9 			"/>
			<polygon class="st3" points="147.4,-1581.1 147.4,-1583.2 154.8,-1590.7 162.3,-1583.2 162.3,-1581.1 			"/>
		</g>
	</g>
</g>
<g>
	<g>
		<g>
			<polygon class="st3" points="223.8,-1605.6 237.5,-1605.6 252.2,-1590.7 267.2,-1605.7 275.8,-1605.7 290.6,-1590.6 
				305.5,-1605.7 319.1,-1605.7 319.1,-1603.4 296.8,-1581.1 286.4,-1581.1 271.6,-1596 256.5,-1581.1 246.2,-1581.1 223.8,-1603.5 
							"/>
			<polygon class="st3" points="244.9,-1603.3 244.9,-1605.5 258,-1605.5 259.7,-1603.8 259.7,-1603.2 252.3,-1595.9 			"/>
			<polygon class="st3" points="298.1,-1603.3 298.1,-1605.5 285,-1605.5 283.3,-1603.8 283.3,-1603.2 290.7,-1595.9 			"/>
			<polygon class="st3" points="264,-1581.1 264,-1583.2 271.4,-1590.7 279,-1583.2 279,-1581.1 			"/>
		</g>
	</g>
</g>
<g>
	<g>
		<g>
			<polygon class="st3" points="340.4,-1605.6 354.2,-1605.6 368.8,-1590.7 383.8,-1605.7 392.4,-1605.7 407.2,-1590.6 
				422.2,-1605.7 435.8,-1605.7 435.8,-1603.4 413.4,-1581.1 403,-1581.1 388.2,-1596 373.1,-1581.1 362.8,-1581.1 340.4,-1603.5 
							"/>
			<polygon class="st3" points="361.5,-1603.3 361.5,-1605.5 374.6,-1605.5 376.3,-1603.8 376.3,-1603.2 368.9,-1595.9 			"/>
			<polygon class="st3" points="414.8,-1603.3 414.8,-1605.5 401.7,-1605.5 400,-1603.8 400,-1603.2 407.4,-1595.9 			"/>
			<polygon class="st3" points="380.7,-1581.1 380.7,-1583.2 388.1,-1590.7 395.6,-1583.2 395.6,-1581.1 			"/>
		</g>
	</g>
</g>
<g>
	<g>
		<g>
			<polygon class="st3" points="457.1,-1605.6 470.8,-1605.6 485.5,-1590.7 500.5,-1605.7 509.1,-1605.7 523.9,-1590.6 
				538.8,-1605.7 552.4,-1605.7 552.4,-1603.4 530.1,-1581.1 519.6,-1581.1 504.8,-1596 489.8,-1581.1 479.5,-1581.1 457.1,-1603.5 
							"/>
			<polygon class="st3" points="478.2,-1603.3 478.2,-1605.5 491.2,-1605.5 493,-1603.8 493,-1603.2 485.6,-1595.9 			"/>
			<polygon class="st3" points="531.4,-1603.3 531.4,-1605.5 518.3,-1605.5 516.6,-1603.8 516.6,-1603.2 524,-1595.9 			"/>
			<polygon class="st3" points="497.3,-1581.1 497.3,-1583.2 504.7,-1590.7 512.2,-1583.2 512.2,-1581.1 			"/>
		</g>
	</g>
</g>
<text transform="matrix(1 0 0 1 102.2399 1111.0476)" class="st3" style="font-family:'NeuropoliticalRg-Regular'; font-size:72px;">WEYLAND-YUTANI CORP</text>
<text transform="matrix(1 0 0 1 -862.9536 1232.4034)" class="st3" style="font-family:'MicrogrammaNormal'; font-size:72px;">“BUILDING BETTER WORLDS”</text>
<g>
	<g>
		<g>
			<polygon class="st4" points="22.6,78.7 126.6,78.7 237.6,191.7 351.1,78.2 416.1,78.2 528.1,192.2 641.1,78.2 744.1,78.2 
				744.1,95.2 575.1,264.2 496.1,264.2 384.1,151.2 270.1,264.2 192.1,264.2 22.6,94.7 			"/>
			<polygon class="st4" points="182.1,96.2 182.1,79.2 281.1,79.2 294.1,92.2 294.1,97.2 238.1,152.2 			"/>
			<polygon class="st4" points="585.1,96.2 585.1,79.2 486.1,79.2 473.1,92.2 473.1,97.2 529.1,152.2 			"/>
			<polygon class="st4" points="327.1,264.2 327.1,248.2 383.1,191.2 440.1,248.2 440.1,264.2 			"/>
		</g>
	</g>
	<g>
		<g>
			<path class="st5" d="M52.9,42.8l-9.8,20.6c-0.4,0.9-1,1.6-1.8,2.2c-0.7,0.6-1.7,0.8-2.8,0.8c-1.2,0-2.1-0.3-2.7-0.8
				c-0.7-0.6-1.2-1.3-1.5-2.2L21.9,33.8h7.9l9.4,23.1l9.5-21c0.5-1.1,1-1.8,1.6-2.2s1.5-0.6,2.7-0.6s2.1,0.2,2.7,0.6
				c0.7,0.4,1.2,1.2,1.6,2.2l9.1,21l9.7-23.1H84c-0.4,0.8-0.9,2-1.6,3.6s-1.5,3.3-2.3,5.2s-1.7,3.9-2.7,6.1
				c-0.9,2.1-1.8,4.1-2.7,6.1c-0.9,1.9-1.6,3.7-2.3,5.2c-0.7,1.5-1.2,2.7-1.5,3.5c-0.4,0.9-1,1.6-1.6,2.2c-0.7,0.6-1.5,0.8-2.6,0.8
				s-2-0.3-2.8-0.8c-0.7-0.5-1.3-1.3-1.7-2.2L52.9,42.8z"/>
			<path class="st5" d="M97.6,65.8c-2.3,0-4.3-0.2-5.9-0.6s-2.8-1-3.8-1.9c-0.9-0.9-1.6-2-2-3.4s-0.6-3.1-0.6-5.1v-10
				c0-2,0.2-3.7,0.6-5.1c0.4-1.4,1.1-2.5,2-3.4s2.2-1.5,3.8-1.9c1.6-0.4,3.5-0.6,5.9-0.6h16.7v6.1H97.6c-1,0-1.9,0.1-2.5,0.3
				c-0.7,0.2-1.2,0.4-1.6,0.8c-0.4,0.4-0.7,0.9-0.8,1.5c-0.1,0.6-0.2,1.4-0.2,2.3V47h22v5.7h-22V55c0,1,0.1,1.8,0.2,2.4
				c0.1,0.6,0.4,1.1,0.8,1.5s0.9,0.6,1.6,0.8c0.7,0.1,1.5,0.2,2.6,0.2h17V66H97.6V65.8z"/>
			<path class="st5" d="M135.3,65.8V50.6l-18.8-16.9h9.6L139,45.2l13.1-11.4h9.1l-18.9,17v15H135.3z"/>
			<path class="st5" d="M174.9,65.8c-2.3,0-4.3-0.2-5.9-0.6c-1.6-0.4-2.8-1-3.8-1.9c-0.9-0.9-1.6-2-2-3.4s-0.6-3.1-0.6-5.1v-21h7.1
				v20.7c0,0.9,0.1,1.7,0.3,2.4c0.2,0.6,0.5,1.2,0.9,1.6c0.4,0.4,1,0.7,1.8,0.9c0.7,0.2,1.7,0.3,2.8,0.3h19v6.1H174.9z"/>
			<path class="st5" d="M230.8,58.4h-22.1l-4.6,7.4h-8.2l18.6-29.6c0.6-0.9,1.2-1.7,2-2.3s1.9-0.9,3.4-0.9c1.4,0,2.5,0.3,3.3,0.9
				c0.8,0.6,1.5,1.3,2,2.3l18.5,29.6h-8.3L230.8,58.4z M211.9,52.9h15.5l-7.7-12.6L211.9,52.9z"/>
			<path class="st5" d="M280.6,66.5c-0.8,0-1.4-0.1-2.1-0.4c-0.6-0.2-1.2-0.6-1.8-1.1l-23.3-22v22.8h-6.6V36c0-1,0.4-1.7,1.1-2.2
				c0.7-0.5,1.6-0.7,2.7-0.7c0.8,0,1.5,0.1,2,0.3s1,0.5,1.3,0.8l23.5,22.7V33.8h6.8v29.7c0,1.1-0.3,1.8-1,2.3
				C282.5,66.2,281.6,66.5,280.6,66.5z"/>
			<path class="st5" d="M289.6,65.8v-32h25.3c2.4,0,4.4,0.2,5.9,0.6c1.6,0.4,2.8,1,3.8,1.9c0.9,0.9,1.6,2,2,3.4s0.6,3.1,0.6,5.1v10
				c0,2-0.2,3.7-0.6,5.1c-0.4,1.4-1.1,2.5-2,3.4s-2.2,1.5-3.8,1.9c-1.6,0.4-3.6,0.6-5.9,0.6H289.6z M320.1,45.1c0-1-0.1-1.8-0.3-2.5
				c-0.2-0.7-0.5-1.2-0.9-1.6c-0.4-0.4-1-0.7-1.7-0.8c-0.7-0.2-1.6-0.3-2.6-0.3h-17.9v19.8h17.9c1,0,1.8-0.1,2.5-0.2
				c0.7-0.2,1.3-0.4,1.7-0.8c0.4-0.4,0.8-0.9,1-1.6s0.3-1.5,0.3-2.5V45.1z"/>
			<path class="st5" d="M331.3,53.6V48h15.5v5.5L331.3,53.6L331.3,53.6z"/>
			<path class="st5" d="M363.1,65.8V50.6l-18.8-16.9h9.6l12.9,11.4L380,33.8h9.1l-18.9,17v15H363.1z"/>
			<path class="st5" d="M402.8,65.8c-2.3,0-4.3-0.2-5.9-0.6s-2.8-1-3.8-1.9c-0.9-0.9-1.6-2-2-3.4s-0.6-3.1-0.6-5.1v-21h7.2v20.8
				c0,1,0.1,1.8,0.3,2.5c0.2,0.6,0.5,1.2,1,1.6c0.4,0.4,1,0.7,1.8,0.8c0.7,0.2,1.6,0.2,2.7,0.2h10.7c1.1,0,2-0.1,2.7-0.2
				c0.7-0.2,1.3-0.4,1.8-0.8c0.4-0.4,0.8-0.9,1-1.6s0.3-1.5,0.3-2.5V33.8h7.1v21c0,2-0.2,3.7-0.6,5.1c-0.4,1.4-1.1,2.5-2,3.4
				c-0.9,0.9-2.2,1.5-3.8,1.9c-1.6,0.4-3.5,0.6-5.9,0.6C414.8,65.8,402.8,65.8,402.8,65.8z"/>
			<path class="st5" d="M443.9,65.8V39.9h-13.4v-6.1h34v6.1h-13.4v25.8h-7.2V65.8z"/>
			<path class="st5" d="M493.9,58.4h-22.1l-4.6,7.4H459l18.6-29.6c0.6-0.9,1.2-1.7,2-2.3s1.9-0.9,3.4-0.9c1.4,0,2.5,0.3,3.3,0.9
				c0.8,0.6,1.5,1.3,2,2.3l18.5,29.6h-8.3L493.9,58.4z M475.1,52.9h15.5l-7.7-12.6L475.1,52.9z"/>
			<path class="st5" d="M543.7,66.5c-0.8,0-1.4-0.1-2.1-0.4c-0.6-0.2-1.2-0.6-1.8-1.1l-23.3-22v22.8h-6.6V36c0-1,0.4-1.7,1.1-2.2
				s1.6-0.7,2.7-0.7c0.8,0,1.5,0.1,2,0.3s1,0.5,1.3,0.8l23.5,22.7V33.8h6.8v29.7c0,1.1-0.3,1.8-1,2.3
				C545.6,66.2,544.8,66.5,543.7,66.5z"/>
			<path class="st5" d="M552.8,65.8v-32h7.1v32H552.8z"/>
			<path class="st5" d="M596.1,65.8c-2.3,0-4.3-0.2-5.9-0.6c-1.6-0.4-2.8-1-3.8-1.9c-0.9-0.9-1.6-2-2-3.4s-0.6-3.1-0.6-5.1v-10
				c0-2,0.2-3.7,0.6-5.1c0.4-1.4,1.1-2.5,2-3.4s2.2-1.5,3.8-1.9s3.5-0.6,5.9-0.6h22.2v6.1h-21.9c-1.1,0-2,0.1-2.7,0.3
				s-1.3,0.5-1.7,0.9s-0.7,0.9-0.8,1.6c-0.2,0.7-0.2,1.5-0.2,2.5v9.4c0,1,0.1,1.8,0.2,2.5c0.2,0.7,0.4,1.2,0.8,1.6
				c0.4,0.4,1,0.7,1.7,0.8c0.7,0.2,1.6,0.2,2.7,0.2h21.8v6.1C618.2,65.8,596.1,65.8,596.1,65.8z"/>
			<path class="st5" d="M634.9,65.8c-2.3,0-4.3-0.2-5.9-0.6c-1.6-0.4-2.8-1-3.8-1.9c-0.9-0.9-1.6-2-2-3.4s-0.6-3.1-0.6-5.1v-10
				c0-2,0.2-3.7,0.6-5.1c0.4-1.4,1.1-2.5,2-3.4s2.2-1.5,3.8-1.9s3.5-0.6,5.9-0.6H647c2.4,0,4.3,0.2,5.9,0.6c1.6,0.4,2.8,1,3.8,1.9
				c0.9,0.9,1.6,2,2,3.4s0.6,3.1,0.6,5.1v10c0,2-0.2,3.7-0.6,5.1c-0.4,1.4-1.1,2.5-2,3.4s-2.2,1.5-3.8,1.9s-3.5,0.6-5.9,0.6H634.9z
				 M652.1,45.1c0-1-0.1-1.8-0.3-2.5s-0.5-1.2-0.9-1.6c-0.4-0.4-1-0.7-1.7-0.8c-0.7-0.2-1.6-0.2-2.6-0.2h-11.5c-1.1,0-2,0.1-2.7,0.2
				c-0.7,0.2-1.3,0.4-1.7,0.8c-0.4,0.4-0.7,0.9-0.8,1.6c-0.1,0.7-0.2,1.5-0.2,2.5v9.4c0,1,0.1,1.9,0.2,2.6c0.1,0.7,0.4,1.2,0.8,1.6
				c0.4,0.4,1,0.7,1.7,0.8s1.6,0.2,2.7,0.2h11.5c1,0,1.9-0.1,2.6-0.2c0.7-0.1,1.3-0.4,1.7-0.8c0.4-0.4,0.7-0.9,0.9-1.6
				c0.2-0.7,0.3-1.5,0.3-2.6V45.1z"/>
			<path class="st5" d="M690.3,65.8l-18.7-11.6v11.6h-7.1v-32h25.1c2.3,0,4.2,0.1,5.8,0.4c1.6,0.3,2.9,0.8,3.9,1.5s1.8,1.7,2.2,3
				c0.5,1.3,0.7,2.8,0.7,4.7v2.2c0,1.8-0.2,3.4-0.8,4.6c-0.5,1.2-1.3,2.2-2.3,2.9s-2.4,1.2-4,1.5s-3.5,0.4-5.7,0.4h-5.6l18.8,10.8
				C702.6,65.8,690.3,65.8,690.3,65.8z M695.1,43.7c0-0.8-0.1-1.5-0.3-2.1c-0.2-0.5-0.5-0.9-0.9-1.2s-1-0.5-1.8-0.6
				s-1.8-0.1-2.9-0.1h-17.5v9.8h17.5c1.2,0,2.1,0,2.9-0.1s1.4-0.3,1.8-0.6c0.5-0.3,0.8-0.7,1-1.2s0.3-1.2,0.3-2.1L695.1,43.7
				L695.1,43.7z"/>
			<path class="st5" d="M714.3,56.6v9.1h-7.1v-32h25.6c2.3,0,4.2,0.2,5.7,0.5c1.5,0.4,2.8,1,3.7,1.8s1.6,1.9,2,3.2s0.6,2.9,0.6,4.8
				v2.8c0,1.9-0.2,3.5-0.6,4.7c-0.4,1.3-1,2.3-1.9,3s-2.2,1.3-3.7,1.6s-3.5,0.4-5.8,0.4h-18.5V56.6z M737.7,44.4
				c0-1.7-0.4-2.9-1.1-3.5c-0.7-0.6-2.1-0.9-4-0.9h-18.3v10.9h18.4c1.9,0,3.2-0.3,3.9-0.9c0.7-0.6,1.1-1.7,1.1-3.4L737.7,44.4
				L737.7,44.4z"/>
		</g>
	</g>
	<g>
		<g>
			<path class="st5" d="M81.2,284.6c0.8-2.9,2.3-6.7,3.3-8.3l2-0.2c-0.8,2.1-1.7,5.7-2.1,8.2L81.2,284.6z M86.4,284.6
				c0.8-2.9,2.3-6.7,3.3-8.3l2-0.2c-0.8,2.1-1.7,5.7-2.1,8.2L86.4,284.6z"/>
			<path class="st5" d="M117.6,293c0,2.4-0.6,4.1-1.9,5.2c-1.3,1.2-3.2,1.8-5.7,1.8H90.8v-23.9h18.3c2.4,0,4.3,0.6,5.7,1.8
				c1.3,1.2,2,2.9,2,5c0,2.4-0.9,3.9-2.7,4.6c1,0.3,1.8,0.9,2.4,1.7C117.2,290.3,117.6,291.5,117.6,293z M113.2,282.9
				c0-1.1-0.3-2-0.8-2.6c-0.7-0.7-1.7-1-3.2-1H94.4v6.9h14.8c1.5,0,2.6-0.3,3.3-0.9C112.9,284.7,113.2,283.9,113.2,282.9z
				 M94.4,289.2v7.6H110c1.3,0,2.3-0.4,3-1.1s1-1.6,1-2.7s-0.4-2-1.1-2.7s-1.7-1.1-3-1.1L94.4,289.2L94.4,289.2z"/>
			<path class="st5" d="M124.6,293.1c0,1.9,0.5,3,1.6,3.4c1,0.4,3.8,0.7,8.3,0.7s7.3-0.2,8.3-0.7c1-0.4,1.5-1.6,1.5-3.4v-17h3.6v17
				c0,3.3-0.7,5.3-2,6.1c-1.4,0.8-5.3,1.3-11.5,1.3s-10-0.4-11.3-1.2c-1.4-0.8-2.1-2.8-2.1-6.1v-17h3.6
				C124.6,276.2,124.6,293.1,124.6,293.1z"/>
			<path class="st5" d="M154.4,300h-3.6v-23.9h3.6V300z"/>
			<path class="st5" d="M157,276.1h3.5v20.7h18.4v3.2H157V276.1z"/>
			<path class="st5" d="M200,276.1c3,0,5,0.5,6.1,1.6c1.6,1.6,2.4,5.1,2.4,10.3c0,5.2-0.8,8.7-2.4,10.3c-1.1,1.1-3.1,1.7-6.1,1.7
				h-20.1v-23.9H200z M183.5,296.8H200c1.9,0,3.2-0.6,3.9-1.8c0.7-1.2,1-3.5,1-7s-0.3-5.8-1-7s-2-1.8-3.9-1.8h-16.5V296.8z"/>
			<path class="st5" d="M217,300h-3.6v-23.9h3.6V300z"/>
			<path class="st5" d="M220.3,276h5.2l20.5,21v-21h3.6v24h-5.4l-20.4-20.8V300h-3.6L220.3,276L220.3,276z"/>
			<path class="st5" d="M256.5,288.1c0,4.4,0.5,7,1.4,7.9c1,0.8,4,1.3,9.1,1.3c5,0,8-0.3,9.1-0.9c1-0.6,1.5-2.4,1.5-5.3h-11.5v-3.2
				h15.1v3.2c0,4.1-0.8,6.7-2.5,7.8c-1.7,1.1-5.6,1.6-11.7,1.6c-6.2,0-10.1-0.7-11.7-2.1c-1.6-1.4-2.4-4.8-2.4-10.3
				c0-5.4,0.8-8.9,2.4-10.3s5.5-2.1,11.7-2.1c6.1,0,10,0.5,11.7,1.4s2.5,3.2,2.5,6.8h-3.6c0-2.3-0.6-3.7-1.7-4.2s-4.1-0.7-9-0.7
				c-5.2,0-8.2,0.4-9.2,1.2C257,281,256.5,283.6,256.5,288.1z"/>
			<path class="st5" d="M325.2,293c0,2.4-0.6,4.1-1.9,5.2c-1.3,1.2-3.2,1.8-5.7,1.8h-19.2v-23.9h18.3c2.4,0,4.3,0.6,5.7,1.8
				c1.3,1.2,2,2.9,2,5c0,2.4-0.9,3.9-2.7,4.6c1,0.3,1.8,0.9,2.4,1.7C324.8,290.3,325.2,291.5,325.2,293z M320.8,282.9
				c0-1.1-0.3-2-0.8-2.6c-0.7-0.7-1.7-1-3.2-1H302v6.9h14.8c1.5,0,2.6-0.3,3.3-0.9C320.5,284.7,320.8,283.9,320.8,282.9z M302,289.2
				v7.6h15.6c1.3,0,2.3-0.4,3-1.1s1-1.6,1-2.7s-0.4-2-1.1-2.7s-1.7-1.1-3-1.1L302,289.2L302,289.2z"/>
			<path class="st5" d="M328.5,276.1h22.9v3.2h-19.3v7h18.7v3.2h-18.7v7.3h19.3v3.2h-22.9V276.1z"/>
			<path class="st5" d="M354.8,276.1h25v3.2h-10.7V300h-3.6v-20.7h-10.7L354.8,276.1L354.8,276.1z"/>
			<path class="st5" d="M380.8,276.1h25v3.2h-10.7V300h-3.6v-20.7h-10.7L380.8,276.1L380.8,276.1z"/>
			<path class="st5" d="M406.9,276.1h22.9v3.2h-19.3v7h18.7v3.2h-18.7v7.3h19.3v3.2h-22.9V276.1z"/>
			<path class="st5" d="M455,276.1c2,0,3.6,0.7,4.7,2.1s1.6,3.3,1.6,5.6c0,2-0.3,3.5-0.9,4.4c-0.4,0.7-1.2,1.3-2.1,1.7
				c0.9,0.4,1.5,0.8,2,1.4c0.7,0.8,1,1.8,1,2.9v5.9h-3.5v-5.9c0-0.8-0.4-1.5-1.1-2c-0.8-0.5-1.7-0.8-2.8-0.8h-16.8v8.6h-3.6v-23.9
				L455,276.1L455,276.1z M437.1,288.1h16.5c1.3,0,2.3-0.2,2.9-0.7c0.9-0.6,1.3-1.9,1.3-3.7c0-1.8-0.5-3.1-1.4-3.7
				c-0.6-0.4-1.6-0.7-2.9-0.7H437v8.8H437.1z"/>
			<path class="st5" d="M492.2,296.5h0.4l8.8-20.4h3l8.7,20.4h0.4l9.2-20.4h3.8L515.7,300h-4.6l-8.3-19.1l-8.2,19.1H490l-10.9-23.9
				h3.8L492.2,296.5z"/>
			<path class="st5" d="M544,300.4c-5,0-8.4-0.3-10.4-1c-2-0.6-3.2-1.8-3.8-3.6c-0.4-1.2-0.6-3.8-0.6-7.7c0-3.9,0.2-6.5,0.5-7.7
				c0.5-1.8,1.8-3.1,3.8-3.7c2-0.7,5.5-1,10.4-1c5,0,8.4,0.3,10.4,0.9c2,0.7,3.2,1.9,3.8,3.7c0.4,1.2,0.6,3.8,0.6,7.7
				c0,3.9-0.2,6.5-0.5,7.6c-0.5,1.8-1.8,3-3.8,3.7C552.5,300,549,300.4,544,300.4z M544,297.1c5.5,0,8.7-0.4,9.7-1.2
				c1-0.8,1.5-3.4,1.5-7.8s-0.5-7.1-1.4-7.9c-1-0.8-4.2-1.2-9.8-1.2c-5.5,0-8.8,0.4-9.7,1.2c-1,0.8-1.5,3.4-1.5,7.9
				c0,4.4,0.5,7,1.5,7.8C535.2,296.7,538.5,297.1,544,297.1z"/>
			<path class="st5" d="M582.1,276.1c2,0,3.6,0.7,4.7,2.1c1.1,1.4,1.6,3.3,1.6,5.6c0,2-0.3,3.5-0.9,4.4c-0.4,0.7-1.2,1.3-2.1,1.7
				c0.9,0.4,1.5,0.8,2,1.4c0.7,0.8,1,1.8,1,2.9v5.9h-3.5v-5.9c0-0.8-0.4-1.5-1.1-2c-0.8-0.5-1.7-0.8-2.8-0.8h-16.8v8.6h-3.6v-23.9
				L582.1,276.1L582.1,276.1z M564.2,288.1h16.5c1.3,0,2.3-0.2,2.9-0.7c0.9-0.6,1.3-1.9,1.3-3.7c0-1.8-0.5-3.1-1.4-3.7
				c-0.6-0.4-1.6-0.7-2.9-0.7h-16.5v8.8H564.2z"/>
			<path class="st5" d="M591.6,276.1h3.5v20.7h18.4v3.2h-21.9V276.1z"/>
			<path class="st5" d="M634.6,276.1c3,0,5,0.5,6.1,1.6c1.6,1.6,2.4,5.1,2.4,10.3c0,5.2-0.8,8.7-2.4,10.3c-1.1,1.1-3.1,1.7-6.1,1.7
				h-20.1v-23.9H634.6z M618.1,296.8h16.5c1.9,0,3.2-0.6,3.9-1.8c0.7-1.2,1-3.5,1-7s-0.3-5.8-1-7s-2-1.8-3.9-1.8h-16.5V296.8z"/>
			<path class="st5" d="M660.6,286.6c5.6,0,9.1,0.3,10.5,1c1.8,0.8,2.7,2.8,2.7,5.9c0,2.9-1.1,4.9-3.3,5.8
				c-1.8,0.7-5.4,1.1-10.8,1.1c-5.9,0-9.6-0.6-11.3-1.9c-1.3-1-1.9-3.1-1.9-6.4h3.6c0,2.3,0.5,3.7,1.5,4.2c1,0.6,3.7,0.9,8.2,0.9
				c4.4,0,7.2-0.2,8.5-0.6s1.9-1.4,1.9-3s-0.5-2.6-1.4-3c-1-0.4-3.7-0.6-8.2-0.6c-5.5,0-9.2-0.7-11.1-2c-1.4-1-2.2-2.8-2.2-5.4
				c0-2.8,0.9-4.7,2.6-5.5c1.7-0.8,5.3-1.2,10.6-1.2s8.9,0.6,10.5,1.9c1.3,1,2,3,2,6h-3.5c0-2-0.5-3.3-1.6-3.9s-3.5-0.8-7.5-0.8
				c-3.4,0-5.4,0-6.2,0.1c-2.3,0.3-3.5,1.4-3.5,3.3c0,1.6,0.6,2.7,1.9,3.3C654,286.3,656.6,286.6,660.6,286.6z"/>
			<path class="st5" d="M680.3,276c-0.8,2.9-2.3,6.7-3.3,8.3l-2,0.2c0.7-2.1,1.7-5.7,2.1-8.2L680.3,276z M685.4,276
				c-0.8,2.9-2.3,6.7-3.3,8.3l-2,0.2c0.8-2.1,1.7-5.7,2.1-8.2L685.4,276z"/>
		</g>
	</g>
</g>
<g>
	<g>
		<g>
			<polygon class="st6" points="-1920.5,78.7 -1816.5,78.7 -1705.5,191.7 -1592,78.2 -1527,78.2 -1415,192.2 -1302,78.2 -1199,78.2 
				-1199,95.2 -1368,264.2 -1447,264.2 -1559,151.2 -1673,264.2 -1751,264.2 -1920.5,94.7 			"/>
			<polygon class="st6" points="-1761,96.2 -1761,79.2 -1662,79.2 -1649,92.2 -1649,97.2 -1705,152.2 			"/>
			<polygon class="st6" points="-1358,96.2 -1358,79.2 -1457,79.2 -1470,92.2 -1470,97.2 -1414,152.2 			"/>
			<polygon class="st6" points="-1616,264.2 -1616,248.2 -1560,191.2 -1503,248.2 -1503,264.2 			"/>
		</g>
	</g>
	<g>
		<g>
			<path class="st3" d="M-1890.2,42.8l-9.8,20.6c-0.4,0.9-1,1.6-1.8,2.2c-0.7,0.6-1.7,0.8-2.8,0.8c-1.2,0-2.1-0.3-2.7-0.8
				c-0.7-0.6-1.2-1.3-1.5-2.2l-12.4-29.6h7.9l9.4,23.1l9.5-21c0.5-1.1,1-1.8,1.6-2.2s1.5-0.6,2.7-0.6s2.1,0.2,2.7,0.6
				c0.7,0.4,1.2,1.2,1.6,2.2l9.1,21l9.7-23.1h7.8c-0.4,0.8-0.9,2-1.6,3.6s-1.5,3.3-2.3,5.2s-1.7,3.9-2.7,6.1
				c-0.9,2.1-1.8,4.1-2.7,6.1c-0.9,1.9-1.6,3.7-2.3,5.2c-0.7,1.5-1.2,2.7-1.5,3.5c-0.4,0.9-1,1.6-1.6,2.2c-0.7,0.6-1.5,0.8-2.6,0.8
				s-2-0.3-2.8-0.8c-0.7-0.5-1.3-1.3-1.7-2.2L-1890.2,42.8z"/>
			<path class="st3" d="M-1845.5,65.8c-2.3,0-4.3-0.2-5.9-0.6s-2.8-1-3.8-1.9c-0.9-0.9-1.6-2-2-3.4s-0.6-3.1-0.6-5.1v-10
				c0-2,0.2-3.7,0.6-5.1c0.4-1.4,1.1-2.5,2-3.4s2.2-1.5,3.8-1.9c1.6-0.4,3.5-0.6,5.9-0.6h16.7v6.1h-16.7c-1,0-1.9,0.1-2.5,0.3
				c-0.7,0.2-1.2,0.4-1.6,0.8c-0.4,0.4-0.7,0.9-0.8,1.5c-0.1,0.6-0.2,1.4-0.2,2.3V47h22v5.7h-22V55c0,1,0.1,1.8,0.2,2.4
				c0.1,0.6,0.4,1.1,0.8,1.5s0.9,0.6,1.6,0.8c0.7,0.1,1.5,0.2,2.6,0.2h17V66h-17.1V65.8z"/>
			<path class="st3" d="M-1807.8,65.8V50.6l-18.8-16.9h9.6l12.9,11.4l13.1-11.4h9.1l-18.9,17v15h-7V65.8z"/>
			<path class="st3" d="M-1768.1,65.8c-2.3,0-4.3-0.2-5.9-0.6s-2.8-1-3.8-1.9c-0.9-0.9-1.6-2-2-3.4s-0.6-3.1-0.6-5.1v-21h7.1v20.7
				c0,0.9,0.1,1.7,0.3,2.4c0.2,0.6,0.5,1.2,0.9,1.6c0.4,0.4,1,0.7,1.8,0.9c0.7,0.2,1.7,0.3,2.8,0.3h19v6.1H-1768.1z"/>
			<path class="st3" d="M-1712.3,58.4h-22.1l-4.6,7.4h-8.2l18.6-29.6c0.6-0.9,1.2-1.7,2-2.3s1.9-0.9,3.4-0.9c1.4,0,2.5,0.3,3.3,0.9
				c0.8,0.6,1.5,1.3,2,2.3l18.5,29.6h-8.3L-1712.3,58.4z M-1731.1,52.9h15.5l-7.7-12.6L-1731.1,52.9z"/>
			<path class="st3" d="M-1662.5,66.5c-0.8,0-1.4-0.1-2.1-0.4c-0.6-0.2-1.2-0.6-1.8-1.1l-23.3-22v22.8h-6.6V36c0-1,0.4-1.7,1.1-2.2
				s1.6-0.7,2.7-0.7c0.8,0,1.5,0.1,2,0.3s1,0.5,1.3,0.8l23.5,22.7V33.8h6.8v29.7c0,1.1-0.3,1.8-1,2.3
				C-1660.6,66.2-1661.4,66.5-1662.5,66.5z"/>
			<path class="st3" d="M-1653.5,65.8v-32h25.3c2.4,0,4.4,0.2,5.9,0.6c1.6,0.4,2.8,1,3.8,1.9c0.9,0.9,1.6,2,2,3.4s0.6,3.1,0.6,5.1
				v10c0,2-0.2,3.7-0.6,5.1c-0.4,1.4-1.1,2.5-2,3.4s-2.2,1.5-3.8,1.9c-1.6,0.4-3.6,0.6-5.9,0.6H-1653.5z M-1623,45.1
				c0-1-0.1-1.8-0.3-2.5c-0.2-0.7-0.5-1.2-0.9-1.6c-0.4-0.4-1-0.7-1.7-0.8c-0.7-0.2-1.6-0.3-2.6-0.3h-17.9v19.8h17.9
				c1,0,1.8-0.1,2.5-0.2c0.7-0.2,1.3-0.4,1.7-0.8c0.4-0.4,0.8-0.9,1-1.6s0.3-1.5,0.3-2.5V45.1z"/>
			<path class="st3" d="M-1611.8,53.6V48h15.5v5.5L-1611.8,53.6L-1611.8,53.6z"/>
			<path class="st3" d="M-1579.9,65.8V50.6l-18.8-16.9h9.6l12.9,11.4l13.1-11.4h9.1l-18.9,17v15h-7V65.8z"/>
			<path class="st3" d="M-1540.3,65.8c-2.3,0-4.3-0.2-5.9-0.6s-2.8-1-3.8-1.9c-0.9-0.9-1.6-2-2-3.4s-0.6-3.1-0.6-5.1v-21h7.2v20.8
				c0,1,0.1,1.8,0.3,2.5c0.2,0.6,0.5,1.2,1,1.6c0.4,0.4,1,0.7,1.8,0.8c0.7,0.2,1.6,0.2,2.7,0.2h10.7c1.1,0,2-0.1,2.7-0.2
				c0.7-0.2,1.3-0.4,1.8-0.8c0.4-0.4,0.8-0.9,1-1.6s0.3-1.5,0.3-2.5V33.8h7.1v21c0,2-0.2,3.7-0.6,5.1c-0.4,1.4-1.1,2.5-2,3.4
				c-0.9,0.9-2.2,1.5-3.8,1.9c-1.6,0.4-3.5,0.6-5.9,0.6C-1528.3,65.8-1540.3,65.8-1540.3,65.8z"/>
			<path class="st3" d="M-1499.1,65.8V39.9h-13.4v-6.1h34v6.1h-13.4v25.8h-7.2V65.8z"/>
			<path class="st3" d="M-1449.2,58.4h-22.1l-4.6,7.4h-8.2l18.6-29.6c0.6-0.9,1.2-1.7,2-2.3s1.9-0.9,3.4-0.9c1.4,0,2.5,0.3,3.3,0.9
				c0.8,0.6,1.5,1.3,2,2.3l18.5,29.6h-8.3L-1449.2,58.4z M-1468,52.9h15.5l-7.7-12.6L-1468,52.9z"/>
			<path class="st3" d="M-1399.4,66.5c-0.8,0-1.4-0.1-2.1-0.4c-0.6-0.2-1.2-0.6-1.8-1.1l-23.3-22v22.8h-6.6V36c0-1,0.4-1.7,1.1-2.2
				s1.6-0.7,2.7-0.7c0.8,0,1.5,0.1,2,0.3s1,0.5,1.3,0.8l23.5,22.7V33.8h6.8v29.7c0,1.1-0.3,1.8-1,2.3
				C-1397.4,66.2-1398.3,66.5-1399.4,66.5z"/>
			<path class="st3" d="M-1390.3,65.8v-32h7.1v32H-1390.3z"/>
			<path class="st3" d="M-1346.9,65.8c-2.3,0-4.3-0.2-5.9-0.6s-2.8-1-3.8-1.9c-0.9-0.9-1.6-2-2-3.4s-0.6-3.1-0.6-5.1v-10
				c0-2,0.2-3.7,0.6-5.1c0.4-1.4,1.1-2.5,2-3.4s2.2-1.5,3.8-1.9c1.6-0.4,3.5-0.6,5.9-0.6h22.2v6.1h-21.9c-1.1,0-2,0.1-2.7,0.3
				s-1.3,0.5-1.7,0.9c-0.4,0.4-0.7,0.9-0.8,1.6c-0.2,0.7-0.2,1.5-0.2,2.5v9.4c0,1,0.1,1.8,0.2,2.5c0.2,0.7,0.4,1.2,0.8,1.6
				c0.4,0.4,1,0.7,1.7,0.8c0.7,0.2,1.6,0.2,2.7,0.2h21.8v6.1C-1324.8,65.8-1346.9,65.8-1346.9,65.8z"/>
			<path class="st3" d="M-1308.2,65.8c-2.3,0-4.3-0.2-5.9-0.6s-2.8-1-3.8-1.9c-0.9-0.9-1.6-2-2-3.4s-0.6-3.1-0.6-5.1v-10
				c0-2,0.2-3.7,0.6-5.1c0.4-1.4,1.1-2.5,2-3.4s2.2-1.5,3.8-1.9c1.6-0.4,3.5-0.6,5.9-0.6h12.2c2.4,0,4.3,0.2,5.9,0.6
				c1.6,0.4,2.8,1,3.8,1.9c0.9,0.9,1.6,2,2,3.4s0.6,3.1,0.6,5.1v10c0,2-0.2,3.7-0.6,5.1c-0.4,1.4-1.1,2.5-2,3.4s-2.2,1.5-3.8,1.9
				c-1.6,0.4-3.5,0.6-5.9,0.6H-1308.2z M-1290.9,45.1c0-1-0.1-1.8-0.3-2.5c-0.2-0.7-0.5-1.2-0.9-1.6c-0.4-0.4-1-0.7-1.7-0.8
				c-0.7-0.2-1.6-0.2-2.6-0.2h-11.5c-1.1,0-2,0.1-2.7,0.2c-0.7,0.2-1.3,0.4-1.7,0.8c-0.4,0.4-0.7,0.9-0.8,1.6
				c-0.1,0.7-0.2,1.5-0.2,2.5v9.4c0,1,0.1,1.9,0.2,2.6c0.1,0.7,0.4,1.2,0.8,1.6c0.4,0.4,1,0.7,1.7,0.8s1.6,0.2,2.7,0.2h11.5
				c1,0,1.9-0.1,2.6-0.2c0.7-0.1,1.3-0.4,1.7-0.8c0.4-0.4,0.7-0.9,0.9-1.6c0.2-0.7,0.3-1.5,0.3-2.6V45.1z"/>
			<path class="st3" d="M-1252.7,65.8l-18.7-11.6v11.6h-7.1v-32h25.1c2.3,0,4.2,0.1,5.8,0.4c1.6,0.3,2.9,0.8,3.9,1.5s1.8,1.7,2.2,3
				c0.5,1.3,0.7,2.8,0.7,4.7v2.2c0,1.8-0.2,3.4-0.8,4.6c-0.5,1.2-1.3,2.2-2.3,2.9s-2.4,1.2-4,1.5s-3.5,0.4-5.7,0.4h-5.6l18.8,10.8
				C-1240.4,65.8-1252.7,65.8-1252.7,65.8z M-1248,43.7c0-0.8-0.1-1.5-0.3-2.1c-0.2-0.5-0.5-0.9-0.9-1.2s-1-0.5-1.8-0.6
				s-1.8-0.1-2.9-0.1h-17.5v9.8h17.5c1.2,0,2.1,0,2.9-0.1s1.4-0.3,1.8-0.6c0.5-0.3,0.8-0.7,1-1.2s0.3-1.2,0.3-2.1L-1248,43.7
				L-1248,43.7z"/>
			<path class="st3" d="M-1228.8,56.6v9.1h-7.1v-32h25.6c2.3,0,4.2,0.2,5.7,0.5c1.5,0.4,2.8,1,3.7,1.8c0.9,0.8,1.6,1.9,2,3.2
				s0.6,2.9,0.6,4.8v2.8c0,1.9-0.2,3.5-0.6,4.7c-0.4,1.3-1,2.3-1.9,3s-2.2,1.3-3.7,1.6s-3.5,0.4-5.8,0.4h-18.5V56.6z M-1205.4,44.4
				c0-1.7-0.4-2.9-1.1-3.5s-2.1-0.9-4-0.9h-18.3v10.9h18.4c1.9,0,3.2-0.3,3.9-0.9c0.7-0.6,1.1-1.7,1.1-3.4V44.4z"/>
		</g>
	</g>
	<g>
		<g>
			<path class="st3" d="M-1861.9,284.6c0.8-2.9,2.3-6.7,3.3-8.3l2-0.2c-0.8,2.1-1.7,5.7-2.1,8.2L-1861.9,284.6z M-1856.6,284.6
				c0.8-2.9,2.3-6.7,3.3-8.3l2-0.2c-0.8,2.1-1.7,5.7-2.1,8.2L-1856.6,284.6z"/>
			<path class="st3" d="M-1825.5,293c0,2.4-0.6,4.1-1.9,5.2c-1.3,1.2-3.2,1.8-5.7,1.8h-19.2v-23.9h18.3c2.4,0,4.3,0.6,5.7,1.8
				c1.3,1.2,2,2.9,2,5c0,2.4-0.9,3.9-2.7,4.6c1,0.3,1.8,0.9,2.4,1.7C-1825.8,290.3-1825.5,291.5-1825.5,293z M-1829.9,282.9
				c0-1.1-0.3-2-0.8-2.6c-0.7-0.7-1.7-1-3.2-1h-14.8v6.9h14.8c1.5,0,2.6-0.3,3.3-0.9C-1830.2,284.7-1829.9,283.9-1829.9,282.9z
				 M-1848.7,289.2v7.6h15.6c1.3,0,2.3-0.4,3-1.1s1-1.6,1-2.7s-0.4-2-1.1-2.7s-1.7-1.1-3-1.1L-1848.7,289.2L-1848.7,289.2z"/>
			<path class="st3" d="M-1818.5,293.1c0,1.9,0.5,3,1.6,3.4c1,0.4,3.8,0.7,8.3,0.7s7.3-0.2,8.3-0.7c1-0.4,1.5-1.6,1.5-3.4v-17h3.6
				v17c0,3.3-0.7,5.3-2,6.1c-1.4,0.8-5.3,1.3-11.5,1.3s-10-0.4-11.3-1.2c-1.4-0.8-2.1-2.8-2.1-6.1v-17h3.6V293.1z"/>
			<path class="st3" d="M-1788.6,300h-3.6v-23.9h3.6V300z"/>
			<path class="st3" d="M-1786,276.1h3.5v20.7h18.4v3.2h-21.9V276.1z"/>
			<path class="st3" d="M-1743.1,276.1c3,0,5,0.5,6.1,1.6c1.6,1.6,2.4,5.1,2.4,10.3c0,5.2-0.8,8.7-2.4,10.3
				c-1.1,1.1-3.1,1.7-6.1,1.7h-20.1v-23.9H-1743.1z M-1759.6,296.8h16.5c1.9,0,3.2-0.6,3.9-1.8c0.7-1.2,1-3.5,1-7s-0.3-5.8-1-7
				s-2-1.8-3.9-1.8h-16.5V296.8z"/>
			<path class="st3" d="M-1726.1,300h-3.6v-23.9h3.6V300z"/>
			<path class="st3" d="M-1722.8,276h5.2l20.5,21v-21h3.6v24h-5.4l-20.4-20.8V300h-3.6v-24H-1722.8z"/>
			<path class="st3" d="M-1686.6,288.1c0,4.4,0.5,7,1.4,7.9c1,0.8,4,1.3,9.1,1.3c5,0,8-0.3,9.1-0.9c1-0.6,1.5-2.4,1.5-5.3h-11.5
				v-3.2h15.1v3.2c0,4.1-0.8,6.7-2.5,7.8c-1.7,1.1-5.6,1.6-11.7,1.6c-6.2,0-10.1-0.7-11.7-2.1s-2.4-4.8-2.4-10.3
				c0-5.4,0.8-8.9,2.4-10.3s5.5-2.1,11.7-2.1c6.1,0,10,0.5,11.7,1.4s2.5,3.2,2.5,6.8h-3.6c0-2.3-0.6-3.7-1.7-4.2s-4.1-0.7-9-0.7
				c-5.2,0-8.2,0.4-9.2,1.2C-1686.1,281-1686.6,283.6-1686.6,288.1z"/>
			<path class="st3" d="M-1617.9,293c0,2.4-0.6,4.1-1.9,5.2c-1.3,1.2-3.2,1.8-5.7,1.8h-19.2v-23.9h18.3c2.4,0,4.3,0.6,5.7,1.8
				c1.3,1.2,2,2.9,2,5c0,2.4-0.9,3.9-2.7,4.6c1,0.3,1.8,0.9,2.4,1.7C-1618.3,290.3-1617.9,291.5-1617.9,293z M-1622.3,282.9
				c0-1.1-0.3-2-0.8-2.6c-0.7-0.7-1.7-1-3.2-1h-14.8v6.9h14.8c1.5,0,2.6-0.3,3.3-0.9C-1622.6,284.7-1622.3,283.9-1622.3,282.9z
				 M-1641.1,289.2v7.6h15.6c1.3,0,2.3-0.4,3-1.1s1-1.6,1-2.7s-0.4-2-1.1-2.7s-1.7-1.1-3-1.1L-1641.1,289.2L-1641.1,289.2z"/>
			<path class="st3" d="M-1614.6,276.1h22.9v3.2h-19.3v7h18.7v3.2h-18.7v7.3h19.3v3.2h-22.9V276.1z"/>
			<path class="st3" d="M-1588.3,276.1h25v3.2h-10.7V300h-3.6v-20.7h-10.7L-1588.3,276.1L-1588.3,276.1z"/>
			<path class="st3" d="M-1562.3,276.1h25v3.2h-10.7V300h-3.6v-20.7h-10.7L-1562.3,276.1L-1562.3,276.1z"/>
			<path class="st3" d="M-1536.2,276.1h22.9v3.2h-19.3v7h18.7v3.2h-18.7v7.3h19.3v3.2h-22.9V276.1z"/>
			<path class="st3" d="M-1488,276.1c2,0,3.6,0.7,4.7,2.1s1.6,3.3,1.6,5.6c0,2-0.3,3.5-0.9,4.4c-0.4,0.7-1.2,1.3-2.1,1.7
				c0.9,0.4,1.5,0.8,2,1.4c0.7,0.8,1,1.8,1,2.9v5.9h-3.5v-5.9c0-0.8-0.4-1.5-1.1-2c-0.8-0.5-1.7-0.8-2.8-0.8h-16.8v8.6h-3.6v-23.9
				L-1488,276.1L-1488,276.1z M-1505.9,288.1h16.5c1.3,0,2.3-0.2,2.9-0.7c0.9-0.6,1.3-1.9,1.3-3.7c0-1.8-0.5-3.1-1.4-3.7
				c-0.6-0.4-1.6-0.7-2.9-0.7h-16.5L-1505.9,288.1L-1505.9,288.1z"/>
			<path class="st3" d="M-1450.9,296.5h0.4l8.8-20.4h3l8.7,20.4h0.4l9.2-20.4h3.8l-10.8,23.9h-4.6l-8.3-19.1l-8.2,19.1h-4.5
				l-10.9-23.9h3.8L-1450.9,296.5z"/>
			<path class="st3" d="M-1399.1,300.4c-5,0-8.4-0.3-10.4-1c-2-0.6-3.2-1.8-3.8-3.6c-0.4-1.2-0.6-3.8-0.6-7.7c0-3.9,0.2-6.5,0.5-7.7
				c0.5-1.8,1.8-3.1,3.8-3.7c2-0.7,5.5-1,10.4-1c5,0,8.4,0.3,10.4,0.9c2,0.7,3.2,1.9,3.8,3.7c0.4,1.2,0.6,3.8,0.6,7.7
				c0,3.9-0.2,6.5-0.5,7.6c-0.5,1.8-1.8,3-3.8,3.7C-1390.6,300-1394.1,300.4-1399.1,300.4z M-1399.1,297.1c5.5,0,8.7-0.4,9.7-1.2
				c1-0.8,1.5-3.4,1.5-7.8s-0.5-7.1-1.4-7.9c-1-0.8-4.2-1.2-9.8-1.2c-5.5,0-8.8,0.4-9.7,1.2c-1,0.8-1.5,3.4-1.5,7.9
				c0,4.4,0.5,7,1.5,7.8C-1407.8,296.7-1404.6,297.1-1399.1,297.1z"/>
			<path class="st3" d="M-1360.9,276.1c2,0,3.6,0.7,4.7,2.1s1.6,3.3,1.6,5.6c0,2-0.3,3.5-0.9,4.4c-0.4,0.7-1.2,1.3-2.1,1.7
				c0.9,0.4,1.5,0.8,2,1.4c0.7,0.8,1,1.8,1,2.9v5.9h-3.5v-5.9c0-0.8-0.4-1.5-1.1-2c-0.8-0.5-1.7-0.8-2.8-0.8h-16.8v8.6h-3.6v-23.9
				L-1360.9,276.1L-1360.9,276.1z M-1378.9,288.1h16.5c1.3,0,2.3-0.2,2.9-0.7c0.9-0.6,1.3-1.9,1.3-3.7c0-1.8-0.5-3.1-1.4-3.7
				c-0.6-0.4-1.6-0.7-2.9-0.7h-16.5L-1378.9,288.1L-1378.9,288.1z"/>
			<path class="st3" d="M-1351.5,276.1h3.5v20.7h18.4v3.2h-21.9V276.1z"/>
			<path class="st3" d="M-1308.5,276.1c3,0,5,0.5,6.1,1.6c1.6,1.6,2.4,5.1,2.4,10.3c0,5.2-0.8,8.7-2.4,10.3
				c-1.1,1.1-3.1,1.7-6.1,1.7h-20.1v-23.9H-1308.5z M-1325,296.8h16.5c1.9,0,3.2-0.6,3.9-1.8c0.7-1.2,1-3.5,1-7s-0.3-5.8-1-7
				s-2-1.8-3.9-1.8h-16.5V296.8z"/>
			<path class="st3" d="M-1282.5,286.6c5.6,0,9.1,0.3,10.5,1c1.8,0.8,2.7,2.8,2.7,5.9c0,2.9-1.1,4.9-3.3,5.8
				c-1.8,0.7-5.4,1.1-10.8,1.1c-5.9,0-9.6-0.6-11.3-1.9c-1.3-1-1.9-3.1-1.9-6.4h3.6c0,2.3,0.5,3.7,1.5,4.2c1,0.6,3.7,0.9,8.2,0.9
				c4.4,0,7.2-0.2,8.5-0.6s1.9-1.4,1.9-3s-0.5-2.6-1.4-3c-1-0.4-3.7-0.6-8.2-0.6c-5.5,0-9.2-0.7-11.1-2c-1.4-1-2.2-2.8-2.2-5.4
				c0-2.8,0.9-4.7,2.6-5.5s5.3-1.2,10.6-1.2c5.3,0,8.9,0.6,10.5,1.9c1.3,1,2,3,2,6h-3.5c0-2-0.5-3.3-1.6-3.9s-3.5-0.8-7.5-0.8
				c-3.4,0-5.4,0-6.2,0.1c-2.3,0.3-3.5,1.4-3.5,3.3c0,1.6,0.6,2.7,1.9,3.3C-1289.1,286.3-1286.5,286.6-1282.5,286.6z"/>
			<path class="st3" d="M-1262.8,276c-0.8,2.9-2.3,6.7-3.3,8.3l-2,0.2c0.7-2.1,1.7-5.7,2.1-8.2L-1262.8,276z M-1257.6,276
				c-0.8,2.9-2.3,6.7-3.3,8.3l-2,0.2c0.8-2.1,1.7-5.7,2.1-8.2L-1257.6,276z"/>
		</g>
	</g>
</g>
<g>
	<g>
		<g>
			<polygon class="st3" points="-921.4,78.7 -817.4,78.7 -706.4,191.7 -592.9,78.2 -527.9,78.2 -415.9,192.2 -302.9,78.2 
				-199.9,78.2 -199.9,95.2 -368.9,264.2 -447.9,264.2 -559.9,151.2 -673.9,264.2 -751.9,264.2 -921.4,94.7 			"/>
			<polygon class="st3" points="-761.9,96.2 -761.9,79.2 -662.9,79.2 -649.9,92.2 -649.9,97.2 -705.9,152.2 			"/>
			<polygon class="st3" points="-358.9,96.2 -358.9,79.2 -457.9,79.2 -470.9,92.2 -470.9,97.2 -414.9,152.2 			"/>
			<polygon class="st3" points="-616.9,264.2 -616.9,248.2 -560.9,191.2 -503.9,248.2 -503.9,264.2 			"/>
		</g>
	</g>
	<g>
		<g>
			<path class="st3" d="M-891.1,42.8l-9.8,20.6c-0.4,0.9-1,1.6-1.8,2.2c-0.7,0.6-1.7,0.8-2.8,0.8c-1.2,0-2.1-0.3-2.7-0.8
				c-0.7-0.6-1.2-1.3-1.5-2.2l-12.4-29.6h7.9l9.4,23.1l9.5-21c0.5-1.1,1-1.8,1.6-2.2s1.5-0.6,2.7-0.6s2.1,0.2,2.7,0.6
				c0.7,0.4,1.2,1.2,1.6,2.2l9.1,21l9.7-23.1h7.8c-0.4,0.8-0.9,2-1.6,3.6c-0.7,1.6-1.5,3.3-2.3,5.2s-1.7,3.9-2.7,6.1
				c-0.9,2.1-1.8,4.1-2.7,6.1c-0.9,1.9-1.6,3.7-2.3,5.2s-1.2,2.7-1.5,3.5c-0.4,0.9-1,1.6-1.6,2.2c-0.7,0.6-1.5,0.8-2.6,0.8
				s-2-0.3-2.8-0.8c-0.7-0.5-1.3-1.3-1.7-2.2L-891.1,42.8z"/>
			<path class="st3" d="M-846.4,65.8c-2.3,0-4.3-0.2-5.9-0.6c-1.6-0.4-2.8-1-3.8-1.9c-0.9-0.9-1.6-2-2-3.4s-0.6-3.1-0.6-5.1v-10
				c0-2,0.2-3.7,0.6-5.1c0.4-1.4,1.1-2.5,2-3.4s2.2-1.5,3.8-1.9s3.5-0.6,5.9-0.6h16.7v6.1h-16.7c-1,0-1.9,0.1-2.5,0.3
				c-0.7,0.2-1.2,0.4-1.6,0.8c-0.4,0.4-0.7,0.9-0.8,1.5s-0.2,1.4-0.2,2.3V47h22v5.7h-22V55c0,1,0.1,1.8,0.2,2.4
				c0.1,0.6,0.4,1.1,0.8,1.5s0.9,0.6,1.6,0.8c0.7,0.1,1.5,0.2,2.6,0.2h17V66h-17.1V65.8z"/>
			<path class="st3" d="M-808.7,65.8V50.6l-18.8-16.9h9.6l12.9,11.4l13.1-11.4h9.1l-18.9,17v15h-7V65.8z"/>
			<path class="st3" d="M-769.1,65.8c-2.3,0-4.3-0.2-5.9-0.6c-1.6-0.4-2.8-1-3.8-1.9c-0.9-0.9-1.6-2-2-3.4s-0.6-3.1-0.6-5.1v-21h7.1
				v20.7c0,0.9,0.1,1.7,0.3,2.4c0.2,0.6,0.5,1.2,0.9,1.6c0.4,0.4,1,0.7,1.8,0.9c0.7,0.2,1.7,0.3,2.8,0.3h19v6.1H-769.1z"/>
			<path class="st3" d="M-713.3,58.4h-22.1l-4.6,7.4h-8.2l18.6-29.6c0.6-0.9,1.2-1.7,2-2.3s1.9-0.9,3.4-0.9c1.4,0,2.5,0.3,3.3,0.9
				c0.8,0.6,1.5,1.3,2,2.3l18.5,29.6h-8.3L-713.3,58.4z M-732.1,52.9h15.5l-7.7-12.6L-732.1,52.9z"/>
			<path class="st3" d="M-663.4,66.5c-0.8,0-1.4-0.1-2.1-0.4c-0.6-0.2-1.2-0.6-1.8-1.1l-23.3-22v22.8h-6.6V36c0-1,0.4-1.7,1.1-2.2
				c0.7-0.5,1.6-0.7,2.7-0.7c0.8,0,1.5,0.1,2,0.3s1,0.5,1.3,0.8l23.5,22.7V33.8h6.8v29.7c0,1.1-0.3,1.8-1,2.3
				C-661.5,66.2-662.4,66.5-663.4,66.5z"/>
			<path class="st3" d="M-654.4,65.8v-32h25.3c2.4,0,4.4,0.2,5.9,0.6c1.6,0.4,2.8,1,3.8,1.9c0.9,0.9,1.6,2,2,3.4s0.6,3.1,0.6,5.1v10
				c0,2-0.2,3.7-0.6,5.1c-0.4,1.4-1.1,2.5-2,3.4s-2.2,1.5-3.8,1.9s-3.6,0.6-5.9,0.6H-654.4z M-623.9,45.1c0-1-0.1-1.8-0.3-2.5
				s-0.5-1.2-0.9-1.6c-0.4-0.4-1-0.7-1.7-0.8c-0.7-0.2-1.6-0.3-2.6-0.3h-17.9v19.8h17.9c1,0,1.8-0.1,2.5-0.2
				c0.7-0.2,1.3-0.4,1.7-0.8c0.4-0.4,0.8-0.9,1-1.6s0.3-1.5,0.3-2.5V45.1z"/>
			<path class="st3" d="M-612.7,53.6V48h15.5v5.5L-612.7,53.6L-612.7,53.6z"/>
			<path class="st3" d="M-580.9,65.8V50.6l-18.8-16.9h9.6l12.9,11.4l13.1-11.4h9.1l-18.9,17v15h-7V65.8z"/>
			<path class="st3" d="M-541.2,65.8c-2.3,0-4.3-0.2-5.9-0.6c-1.6-0.4-2.8-1-3.8-1.9c-0.9-0.9-1.6-2-2-3.4s-0.6-3.1-0.6-5.1v-21h7.2
				v20.8c0,1,0.1,1.8,0.3,2.5c0.2,0.6,0.5,1.2,1,1.6c0.4,0.4,1,0.7,1.8,0.8c0.7,0.2,1.6,0.2,2.7,0.2h10.7c1.1,0,2-0.1,2.7-0.2
				c0.7-0.2,1.3-0.4,1.8-0.8c0.4-0.4,0.8-0.9,1-1.6s0.3-1.5,0.3-2.5V33.8h7.1v21c0,2-0.2,3.7-0.6,5.1c-0.4,1.4-1.1,2.5-2,3.4
				c-0.9,0.9-2.2,1.5-3.8,1.9c-1.6,0.4-3.5,0.6-5.9,0.6C-529.2,65.8-541.2,65.8-541.2,65.8z"/>
			<path class="st3" d="M-500.1,65.8V39.9h-13.4v-6.1h34v6.1h-13.4v25.8h-7.2V65.8z"/>
			<path class="st3" d="M-450.1,58.4h-22.1l-4.6,7.4h-8.2l18.6-29.6c0.6-0.9,1.2-1.7,2-2.3s1.9-0.9,3.4-0.9c1.4,0,2.5,0.3,3.3,0.9
				c0.8,0.6,1.5,1.3,2,2.3l18.5,29.6h-8.3L-450.1,58.4z M-468.9,52.9h15.5l-7.7-12.6L-468.9,52.9z"/>
			<path class="st3" d="M-400.3,66.5c-0.8,0-1.4-0.1-2.1-0.4c-0.6-0.2-1.2-0.6-1.8-1.1l-23.3-22v22.8h-6.6V36c0-1,0.4-1.7,1.1-2.2
				s1.6-0.7,2.7-0.7c0.8,0,1.5,0.1,2,0.3s1,0.5,1.3,0.8l23.5,22.7V33.8h6.8v29.7c0,1.1-0.3,1.8-1,2.3
				C-398.4,66.2-399.2,66.5-400.3,66.5z"/>
			<path class="st3" d="M-391.2,65.8v-32h7.1v32H-391.2z"/>
			<path class="st3" d="M-347.9,65.8c-2.3,0-4.3-0.2-5.9-0.6s-2.8-1-3.8-1.9c-0.9-0.9-1.6-2-2-3.4s-0.6-3.1-0.6-5.1v-10
				c0-2,0.2-3.7,0.6-5.1c0.4-1.4,1.1-2.5,2-3.4s2.2-1.5,3.8-1.9c1.6-0.4,3.5-0.6,5.9-0.6h22.2v6.1h-21.9c-1.1,0-2,0.1-2.7,0.3
				s-1.3,0.5-1.7,0.9c-0.4,0.4-0.7,0.9-0.8,1.6c-0.2,0.7-0.2,1.5-0.2,2.5v9.4c0,1,0.1,1.8,0.2,2.5c0.2,0.7,0.4,1.2,0.8,1.6
				c0.4,0.4,1,0.7,1.7,0.8c0.7,0.2,1.6,0.2,2.7,0.2h21.8v6.1C-325.8,65.8-347.9,65.8-347.9,65.8z"/>
			<path class="st3" d="M-309.1,65.8c-2.3,0-4.3-0.2-5.9-0.6s-2.8-1-3.8-1.9c-0.9-0.9-1.6-2-2-3.4s-0.6-3.1-0.6-5.1v-10
				c0-2,0.2-3.7,0.6-5.1c0.4-1.4,1.1-2.5,2-3.4s2.2-1.5,3.8-1.9c1.6-0.4,3.5-0.6,5.9-0.6h12.2c2.4,0,4.3,0.2,5.9,0.6
				c1.6,0.4,2.8,1,3.8,1.9c0.9,0.9,1.6,2,2,3.4s0.6,3.1,0.6,5.1v10c0,2-0.2,3.7-0.6,5.1c-0.4,1.4-1.1,2.5-2,3.4s-2.2,1.5-3.8,1.9
				c-1.6,0.4-3.5,0.6-5.9,0.6H-309.1z M-291.9,45.1c0-1-0.1-1.8-0.3-2.5c-0.2-0.7-0.5-1.2-0.9-1.6c-0.4-0.4-1-0.7-1.7-0.8
				c-0.7-0.2-1.6-0.2-2.6-0.2h-11.5c-1.1,0-2,0.1-2.7,0.2c-0.7,0.2-1.3,0.4-1.7,0.8c-0.4,0.4-0.7,0.9-0.8,1.6
				c-0.1,0.7-0.2,1.5-0.2,2.5v9.4c0,1,0.1,1.9,0.2,2.6c0.1,0.7,0.4,1.2,0.8,1.6c0.4,0.4,1,0.7,1.7,0.8s1.6,0.2,2.7,0.2h11.5
				c1,0,1.9-0.1,2.6-0.2c0.7-0.1,1.3-0.4,1.7-0.8c0.4-0.4,0.7-0.9,0.9-1.6c0.2-0.7,0.3-1.5,0.3-2.6V45.1z"/>
			<path class="st3" d="M-253.7,65.8l-18.7-11.6v11.6h-7.1v-32h25.1c2.3,0,4.2,0.1,5.8,0.4c1.6,0.3,2.9,0.8,3.9,1.5s1.8,1.7,2.2,3
				c0.5,1.3,0.7,2.8,0.7,4.7v2.2c0,1.8-0.2,3.4-0.8,4.6c-0.5,1.2-1.3,2.2-2.3,2.9s-2.4,1.2-4,1.5s-3.5,0.4-5.7,0.4h-5.6l18.8,10.8
				C-241.4,65.8-253.7,65.8-253.7,65.8z M-249,43.7c0-0.8-0.1-1.5-0.3-2.1c-0.2-0.5-0.5-0.9-0.9-1.2s-1-0.5-1.8-0.6
				s-1.8-0.1-2.9-0.1h-17.5v9.8h17.5c1.2,0,2.1,0,2.9-0.1s1.4-0.3,1.8-0.6c0.5-0.3,0.8-0.7,1-1.2s0.3-1.2,0.3-2.1v-1.8H-249z"/>
			<path class="st3" d="M-229.7,56.6v9.1h-7.1v-32h25.6c2.3,0,4.2,0.2,5.7,0.5c1.5,0.4,2.8,1,3.7,1.8s1.6,1.9,2,3.2s0.6,2.9,0.6,4.8
				v2.8c0,1.9-0.2,3.5-0.6,4.7c-0.4,1.3-1,2.3-1.9,3s-2.2,1.3-3.7,1.6s-3.5,0.4-5.8,0.4h-18.5V56.6z M-206.4,44.4
				c0-1.7-0.4-2.9-1.1-3.5c-0.7-0.6-2.1-0.9-4-0.9h-18.3v10.9h18.4c1.9,0,3.2-0.3,3.9-0.9c0.7-0.6,1.1-1.7,1.1-3.4L-206.4,44.4
				L-206.4,44.4z"/>
		</g>
	</g>
	<g>
		<g>
			<path class="st3" d="M-862.8,284.6c0.8-2.9,2.3-6.7,3.3-8.3l2-0.2c-0.8,2.1-1.7,5.7-2.1,8.2L-862.8,284.6z M-857.6,284.6
				c0.8-2.9,2.3-6.7,3.3-8.3l2-0.2c-0.8,2.1-1.7,5.7-2.1,8.2L-857.6,284.6z"/>
			<path class="st3" d="M-826.4,293c0,2.4-0.6,4.1-1.9,5.2c-1.3,1.2-3.2,1.8-5.7,1.8h-19.2v-23.9h18.3c2.4,0,4.3,0.6,5.7,1.8
				c1.3,1.2,2,2.9,2,5c0,2.4-0.9,3.9-2.7,4.6c1,0.3,1.8,0.9,2.4,1.7C-826.8,290.3-826.4,291.5-826.4,293z M-830.8,282.9
				c0-1.1-0.3-2-0.8-2.6c-0.7-0.7-1.7-1-3.2-1h-14.8v6.9h14.8c1.5,0,2.6-0.3,3.3-0.9C-831.1,284.7-830.8,283.9-830.8,282.9z
				 M-849.6,289.2v7.6h15.6c1.3,0,2.3-0.4,3-1.1s1-1.6,1-2.7s-0.4-2-1.1-2.7c-0.7-0.7-1.7-1.1-3-1.1L-849.6,289.2L-849.6,289.2z"/>
			<path class="st3" d="M-819.5,293.1c0,1.9,0.5,3,1.6,3.4c1,0.4,3.8,0.7,8.3,0.7s7.3-0.2,8.3-0.7c1-0.4,1.5-1.6,1.5-3.4v-17h3.6v17
				c0,3.3-0.7,5.3-2,6.1c-1.4,0.8-5.3,1.3-11.5,1.3s-10-0.4-11.3-1.2c-1.4-0.8-2.1-2.8-2.1-6.1v-17h3.6L-819.5,293.1L-819.5,293.1z"
				/>
			<path class="st3" d="M-789.6,300h-3.6v-23.9h3.6V300z"/>
			<path class="st3" d="M-787,276.1h3.5v20.7h18.4v3.2H-787V276.1z"/>
			<path class="st3" d="M-744,276.1c3,0,5,0.5,6.1,1.6c1.6,1.6,2.4,5.1,2.4,10.3c0,5.2-0.8,8.7-2.4,10.3c-1.1,1.1-3.1,1.7-6.1,1.7
				h-20.1v-23.9H-744z M-760.5,296.8h16.5c1.9,0,3.2-0.6,3.9-1.8c0.7-1.2,1-3.5,1-7s-0.3-5.8-1-7s-2-1.8-3.9-1.8h-16.5V296.8z"/>
			<path class="st3" d="M-727,300h-3.6v-23.9h3.6V300z"/>
			<path class="st3" d="M-723.7,276h5.2l20.5,21v-21h3.6v24h-5.4l-20.4-20.8V300h-3.6v-24H-723.7z"/>
			<path class="st3" d="M-687.5,288.1c0,4.4,0.5,7,1.4,7.9c1,0.8,4,1.3,9.1,1.3c5,0,8-0.3,9.1-0.9c1-0.6,1.5-2.4,1.5-5.3h-11.5v-3.2
				h15.1v3.2c0,4.1-0.8,6.7-2.5,7.8c-1.7,1.1-5.6,1.6-11.7,1.6c-6.2,0-10.1-0.7-11.7-2.1c-1.6-1.4-2.4-4.8-2.4-10.3
				c0-5.4,0.8-8.9,2.4-10.3c1.6-1.4,5.5-2.1,11.7-2.1c6.1,0,10,0.5,11.7,1.4s2.5,3.2,2.5,6.8h-3.6c0-2.3-0.6-3.7-1.7-4.2
				c-1.1-0.5-4.1-0.7-9-0.7c-5.2,0-8.2,0.4-9.2,1.2C-687,281-687.5,283.6-687.5,288.1z"/>
			<path class="st3" d="M-618.8,293c0,2.4-0.6,4.1-1.9,5.2c-1.3,1.2-3.2,1.8-5.7,1.8h-19.2v-23.9h18.3c2.4,0,4.3,0.6,5.7,1.8
				c1.3,1.2,2,2.9,2,5c0,2.4-0.9,3.9-2.7,4.6c1,0.3,1.8,0.9,2.4,1.7C-619.2,290.3-618.8,291.5-618.8,293z M-623.2,282.9
				c0-1.1-0.3-2-0.8-2.6c-0.7-0.7-1.7-1-3.2-1H-642v6.9h14.8c1.5,0,2.6-0.3,3.3-0.9C-623.5,284.7-623.2,283.9-623.2,282.9z
				 M-642.1,289.2v7.6h15.6c1.3,0,2.3-0.4,3-1.1s1-1.6,1-2.7s-0.4-2-1.1-2.7c-0.7-0.7-1.7-1.1-3-1.1L-642.1,289.2L-642.1,289.2z"/>
			<path class="st3" d="M-615.5,276.1h22.9v3.2h-19.3v7h18.7v3.2h-18.7v7.3h19.3v3.2h-22.9V276.1z"/>
			<path class="st3" d="M-589.3,276.1h25v3.2H-575V300h-3.6v-20.7h-10.7V276.1z"/>
			<path class="st3" d="M-563.2,276.1h25v3.2h-10.7V300h-3.6v-20.7h-10.7V276.1z"/>
			<path class="st3" d="M-537.1,276.1h22.9v3.2h-19.3v7h18.7v3.2h-18.7v7.3h19.3v3.2h-22.9V276.1z"/>
			<path class="st3" d="M-489,276.1c2,0,3.6,0.7,4.7,2.1s1.6,3.3,1.6,5.6c0,2-0.3,3.5-0.9,4.4c-0.4,0.7-1.2,1.3-2.1,1.7
				c0.9,0.4,1.5,0.8,2,1.4c0.7,0.8,1,1.8,1,2.9v5.9h-3.5v-5.9c0-0.8-0.4-1.5-1.1-2c-0.8-0.5-1.7-0.8-2.8-0.8h-16.8v8.6h-3.6v-23.9
				L-489,276.1L-489,276.1z M-506.9,288.1h16.5c1.3,0,2.3-0.2,2.9-0.7c0.9-0.6,1.3-1.9,1.3-3.7c0-1.8-0.5-3.1-1.4-3.7
				c-0.6-0.4-1.6-0.7-2.9-0.7H-507v8.8H-506.9z"/>
			<path class="st3" d="M-451.8,296.5h0.4l8.8-20.4h3l8.7,20.4h0.4l9.2-20.4h3.8l-10.8,23.9h-4.6l-8.3-19.1l-8.2,19.1h-4.5
				l-10.9-23.9h3.8L-451.8,296.5z"/>
			<path class="st3" d="M-400,300.4c-5,0-8.4-0.3-10.4-1c-2-0.6-3.2-1.8-3.8-3.6c-0.4-1.2-0.6-3.8-0.6-7.7c0-3.9,0.2-6.5,0.5-7.7
				c0.5-1.8,1.8-3.1,3.8-3.7c2-0.7,5.5-1,10.4-1c5,0,8.4,0.3,10.4,0.9c2,0.7,3.2,1.9,3.8,3.7c0.4,1.2,0.6,3.8,0.6,7.7
				c0,3.9-0.2,6.5-0.5,7.6c-0.5,1.8-1.8,3-3.8,3.7S-395,300.4-400,300.4z M-400,297.1c5.5,0,8.7-0.4,9.7-1.2c1-0.8,1.5-3.4,1.5-7.8
				s-0.5-7.1-1.4-7.9c-1-0.8-4.2-1.2-9.8-1.2c-5.5,0-8.8,0.4-9.7,1.2c-1,0.8-1.5,3.4-1.5,7.9c0,4.4,0.5,7,1.5,7.8
				C-408.8,296.7-405.5,297.1-400,297.1z"/>
			<path class="st3" d="M-361.9,276.1c2,0,3.6,0.7,4.7,2.1s1.6,3.3,1.6,5.6c0,2-0.3,3.5-0.9,4.4c-0.4,0.7-1.2,1.3-2.1,1.7
				c0.9,0.4,1.5,0.8,2,1.4c0.7,0.8,1,1.8,1,2.9v5.9h-3.5v-5.9c0-0.8-0.4-1.5-1.1-2c-0.8-0.5-1.7-0.8-2.8-0.8h-16.8v8.6h-3.6v-23.9
				L-361.9,276.1L-361.9,276.1z M-379.8,288.1h16.5c1.3,0,2.3-0.2,2.9-0.7c0.9-0.6,1.3-1.9,1.3-3.7c0-1.8-0.5-3.1-1.4-3.7
				c-0.6-0.4-1.6-0.7-2.9-0.7h-16.5v8.8H-379.8z"/>
			<path class="st3" d="M-352.4,276.1h3.5v20.7h18.4v3.2h-21.9V276.1z"/>
			<path class="st3" d="M-309.4,276.1c3,0,5,0.5,6.1,1.6c1.6,1.6,2.4,5.1,2.4,10.3c0,5.2-0.8,8.7-2.4,10.3c-1.1,1.1-3.1,1.7-6.1,1.7
				h-20.1v-23.9H-309.4z M-325.9,296.8h16.5c1.9,0,3.2-0.6,3.9-1.8c0.7-1.2,1-3.5,1-7s-0.3-5.8-1-7s-2-1.8-3.9-1.8h-16.5V296.8z"/>
			<path class="st3" d="M-283.5,286.6c5.6,0,9.1,0.3,10.5,1c1.8,0.8,2.7,2.8,2.7,5.9c0,2.9-1.1,4.9-3.3,5.8
				c-1.8,0.7-5.4,1.1-10.8,1.1c-5.9,0-9.6-0.6-11.3-1.9c-1.3-1-1.9-3.1-1.9-6.4h3.6c0,2.3,0.5,3.7,1.5,4.2c1,0.6,3.7,0.9,8.2,0.9
				c4.4,0,7.2-0.2,8.5-0.6s1.9-1.4,1.9-3s-0.5-2.6-1.4-3c-1-0.4-3.7-0.6-8.2-0.6c-5.5,0-9.2-0.7-11.1-2c-1.4-1-2.2-2.8-2.2-5.4
				c0-2.8,0.9-4.7,2.6-5.5s5.3-1.2,10.6-1.2c5.3,0,8.9,0.6,10.5,1.9c1.3,1,2,3,2,6h-3.5c0-2-0.5-3.3-1.6-3.9s-3.5-0.8-7.5-0.8
				c-3.4,0-5.4,0-6.2,0.1c-2.3,0.3-3.5,1.4-3.5,3.3c0,1.6,0.6,2.7,1.9,3.3C-290,286.3-287.4,286.6-283.5,286.6z"/>
			<path class="st3" d="M-263.8,276c-0.8,2.9-2.3,6.7-3.3,8.3l-2,0.2c0.7-2.1,1.7-5.7,2.1-8.2L-263.8,276z M-258.6,276
				c-0.8,2.9-2.3,6.7-3.3,8.3l-2,0.2c0.8-2.1,1.7-5.7,2.1-8.2L-258.6,276z"/>
		</g>
	</g>
</g>
<g>
	<g>
		<g>
			<polygon class="st3" points="-921.4,-323.9 -817.4,-323.9 -706.4,-210.9 -592.9,-324.4 -527.9,-324.4 -415.9,-210.4 
				-302.9,-324.4 -199.9,-324.4 -199.9,-307.4 -368.9,-138.4 -447.9,-138.4 -559.9,-251.4 -673.9,-138.4 -751.9,-138.4 
				-921.4,-307.9 			"/>
			<polygon class="st3" points="-761.9,-306.4 -761.9,-323.4 -662.9,-323.4 -649.9,-310.4 -649.9,-305.4 -705.9,-250.4 			"/>
			<polygon class="st3" points="-358.9,-306.4 -358.9,-323.4 -457.9,-323.4 -470.9,-310.4 -470.9,-305.4 -414.9,-250.4 			"/>
			<polygon class="st3" points="-616.9,-138.4 -616.9,-154.4 -560.9,-211.4 -503.9,-154.4 -503.9,-138.4 			"/>
		</g>
	</g>
	<g>
		<g>
			<path class="st3" d="M-891.1-359.8l-9.8,20.6c-0.4,0.9-1,1.6-1.8,2.2c-0.7,0.6-1.7,0.8-2.8,0.8c-1.2,0-2.1-0.3-2.7-0.8
				c-0.7-0.6-1.2-1.3-1.5-2.2l-12.4-29.6h7.9l9.4,23.1l9.5-21c0.5-1.1,1-1.8,1.6-2.2c0.6-0.4,1.5-0.6,2.7-0.6s2.1,0.2,2.7,0.6
				c0.7,0.4,1.2,1.2,1.6,2.2l9.1,21l9.7-23.1h7.8c-0.4,0.8-0.9,2-1.6,3.6c-0.7,1.6-1.5,3.3-2.3,5.2c-0.8,1.9-1.7,3.9-2.7,6.1
				c-0.9,2.1-1.8,4.1-2.7,6.1c-0.9,1.9-1.6,3.7-2.3,5.2s-1.2,2.7-1.5,3.5c-0.4,0.9-1,1.6-1.6,2.2c-0.7,0.6-1.5,0.8-2.6,0.8
				s-2-0.3-2.8-0.8c-0.7-0.5-1.3-1.3-1.7-2.2L-891.1-359.8z"/>
			<path class="st3" d="M-846.4-336.8c-2.3,0-4.3-0.2-5.9-0.6c-1.6-0.4-2.8-1-3.8-1.9c-0.9-0.9-1.6-2-2-3.4s-0.6-3.1-0.6-5.1v-10
				c0-2,0.2-3.7,0.6-5.1c0.4-1.4,1.1-2.5,2-3.4s2.2-1.5,3.8-1.9s3.5-0.6,5.9-0.6h16.7v6.1h-16.7c-1,0-1.9,0.1-2.5,0.3
				c-0.7,0.2-1.2,0.4-1.6,0.8c-0.4,0.4-0.7,0.9-0.8,1.5s-0.2,1.4-0.2,2.3v2.2h22v5.7h-22v2.3c0,1,0.1,1.8,0.2,2.4
				c0.1,0.6,0.4,1.1,0.8,1.5s0.9,0.6,1.6,0.8c0.7,0.1,1.5,0.2,2.6,0.2h17v6.1h-17.1V-336.8z"/>
			<path class="st3" d="M-808.7-336.8v-15.1l-18.8-16.9h9.6l12.9,11.4l13.1-11.4h9.1l-18.9,17v15H-808.7z"/>
			<path class="st3" d="M-769.1-336.8c-2.3,0-4.3-0.2-5.9-0.6c-1.6-0.4-2.8-1-3.8-1.9c-0.9-0.9-1.6-2-2-3.4s-0.6-3.1-0.6-5.1v-21
				h7.1v20.7c0,0.9,0.1,1.7,0.3,2.4c0.2,0.6,0.5,1.2,0.9,1.6s1,0.7,1.8,0.9c0.7,0.2,1.7,0.3,2.8,0.3h19v6.1H-769.1z"/>
			<path class="st3" d="M-713.3-344.2h-22.1l-4.6,7.4h-8.2l18.6-29.6c0.6-0.9,1.2-1.7,2-2.3c0.8-0.6,1.9-0.9,3.4-0.9
				c1.4,0,2.5,0.3,3.3,0.9s1.5,1.3,2,2.3l18.5,29.6h-8.3L-713.3-344.2z M-732.1-349.7h15.5l-7.7-12.6L-732.1-349.7z"/>
			<path class="st3" d="M-663.4-336.1c-0.8,0-1.4-0.1-2.1-0.4c-0.6-0.2-1.2-0.6-1.8-1.1l-23.3-22v22.8h-6.6v-29.7
				c0-1,0.4-1.7,1.1-2.2c0.7-0.5,1.6-0.7,2.7-0.7c0.8,0,1.5,0.1,2,0.3c0.5,0.2,1,0.5,1.3,0.8l23.5,22.7v-23.1h6.8v29.7
				c0,1.1-0.3,1.8-1,2.3C-661.5-336.3-662.4-336.1-663.4-336.1z"/>
			<path class="st3" d="M-654.4-336.8v-32h25.3c2.4,0,4.4,0.2,5.9,0.6c1.6,0.4,2.8,1,3.8,1.9c0.9,0.9,1.6,2,2,3.4s0.6,3.1,0.6,5.1
				v10c0,2-0.2,3.7-0.6,5.1c-0.4,1.4-1.1,2.5-2,3.4s-2.2,1.5-3.8,1.9s-3.6,0.6-5.9,0.6H-654.4z M-623.9-357.5c0-1-0.1-1.8-0.3-2.5
				s-0.5-1.2-0.9-1.6s-1-0.7-1.7-0.8c-0.7-0.2-1.6-0.3-2.6-0.3h-17.9v19.8h17.9c1,0,1.8-0.1,2.5-0.2c0.7-0.2,1.3-0.4,1.7-0.8
				s0.8-0.9,1-1.6s0.3-1.5,0.3-2.5V-357.5z"/>
			<path class="st3" d="M-612.7-349v-5.5h15.5v5.5H-612.7z"/>
			<path class="st3" d="M-580.9-336.8v-15.1l-18.8-16.9h9.6l12.9,11.4l13.1-11.4h9.1l-18.9,17v15H-580.9z"/>
			<path class="st3" d="M-541.2-336.8c-2.3,0-4.3-0.2-5.9-0.6c-1.6-0.4-2.8-1-3.8-1.9c-0.9-0.9-1.6-2-2-3.4s-0.6-3.1-0.6-5.1v-21
				h7.2v20.8c0,1,0.1,1.8,0.3,2.5c0.2,0.6,0.5,1.2,1,1.6c0.4,0.4,1,0.7,1.8,0.8c0.7,0.2,1.6,0.2,2.7,0.2h10.7c1.1,0,2-0.1,2.7-0.2
				c0.7-0.2,1.3-0.4,1.8-0.8c0.4-0.4,0.8-0.9,1-1.6s0.3-1.5,0.3-2.5v-20.7h7.1v21c0,2-0.2,3.7-0.6,5.1c-0.4,1.4-1.1,2.5-2,3.4
				s-2.2,1.5-3.8,1.9s-3.5,0.6-5.9,0.6L-541.2-336.8L-541.2-336.8z"/>
			<path class="st3" d="M-500.1-336.8v-25.8h-13.4v-6.1h34v6.1h-13.4v25.8H-500.1z"/>
			<path class="st3" d="M-450.1-344.2h-22.1l-4.6,7.4h-8.2l18.6-29.6c0.6-0.9,1.2-1.7,2-2.3c0.8-0.6,1.9-0.9,3.4-0.9
				c1.4,0,2.5,0.3,3.3,0.9s1.5,1.3,2,2.3l18.5,29.6h-8.3L-450.1-344.2z M-468.9-349.7h15.5l-7.7-12.6L-468.9-349.7z"/>
			<path class="st3" d="M-400.3-336.1c-0.8,0-1.4-0.1-2.1-0.4c-0.6-0.2-1.2-0.6-1.8-1.1l-23.3-22v22.8h-6.6v-29.7
				c0-1,0.4-1.7,1.1-2.2s1.6-0.7,2.7-0.7c0.8,0,1.5,0.1,2,0.3c0.5,0.2,1,0.5,1.3,0.8l23.5,22.7v-23.1h6.8v29.7c0,1.1-0.3,1.8-1,2.3
				C-398.4-336.3-399.2-336.1-400.3-336.1z"/>
			<path class="st3" d="M-391.2-336.8v-32h7.1v32H-391.2z"/>
			<path class="st3" d="M-347.9-336.8c-2.3,0-4.3-0.2-5.9-0.6s-2.8-1-3.8-1.9c-0.9-0.9-1.6-2-2-3.4s-0.6-3.1-0.6-5.1v-10
				c0-2,0.2-3.7,0.6-5.1s1.1-2.5,2-3.4s2.2-1.5,3.8-1.9c1.6-0.4,3.5-0.6,5.9-0.6h22.2v6.1h-21.9c-1.1,0-2,0.1-2.7,0.3
				c-0.7,0.2-1.3,0.5-1.7,0.9c-0.4,0.4-0.7,0.9-0.8,1.6c-0.2,0.7-0.2,1.5-0.2,2.5v9.4c0,1,0.1,1.8,0.2,2.5c0.2,0.7,0.4,1.2,0.8,1.6
				s1,0.7,1.7,0.8c0.7,0.2,1.6,0.2,2.7,0.2h21.8v6.1H-347.9z"/>
			<path class="st3" d="M-309.1-336.8c-2.3,0-4.3-0.2-5.9-0.6s-2.8-1-3.8-1.9c-0.9-0.9-1.6-2-2-3.4s-0.6-3.1-0.6-5.1v-10
				c0-2,0.2-3.7,0.6-5.1s1.1-2.5,2-3.4s2.2-1.5,3.8-1.9c1.6-0.4,3.5-0.6,5.9-0.6h12.2c2.4,0,4.3,0.2,5.9,0.6s2.8,1,3.8,1.9
				c0.9,0.9,1.6,2,2,3.4s0.6,3.1,0.6,5.1v10c0,2-0.2,3.7-0.6,5.1s-1.1,2.5-2,3.4s-2.2,1.5-3.8,1.9c-1.6,0.4-3.5,0.6-5.9,0.6H-309.1z
				 M-291.9-357.5c0-1-0.1-1.8-0.3-2.5c-0.2-0.7-0.5-1.2-0.9-1.6s-1-0.7-1.7-0.8c-0.7-0.2-1.6-0.2-2.6-0.2h-11.5
				c-1.1,0-2,0.1-2.7,0.2c-0.7,0.2-1.3,0.4-1.7,0.8c-0.4,0.4-0.7,0.9-0.8,1.6c-0.1,0.7-0.2,1.5-0.2,2.5v9.4c0,1,0.1,1.9,0.2,2.6
				s0.4,1.2,0.8,1.6s1,0.7,1.7,0.8c0.7,0.1,1.6,0.2,2.7,0.2h11.5c1,0,1.9-0.1,2.6-0.2s1.3-0.4,1.7-0.8c0.4-0.4,0.7-0.9,0.9-1.6
				c0.2-0.7,0.3-1.5,0.3-2.6V-357.5z"/>
			<path class="st3" d="M-253.7-336.8l-18.7-11.6v11.6h-7.1v-32h25.1c2.3,0,4.2,0.1,5.8,0.4s2.9,0.8,3.9,1.5s1.8,1.7,2.2,3
				c0.5,1.3,0.7,2.8,0.7,4.7v2.2c0,1.8-0.2,3.4-0.8,4.6c-0.5,1.2-1.3,2.2-2.3,2.9c-1,0.7-2.4,1.2-4,1.5s-3.5,0.4-5.7,0.4h-5.6
				l18.8,10.8H-253.7z M-249-358.8c0-0.8-0.1-1.5-0.3-2.1c-0.2-0.5-0.5-0.9-0.9-1.2c-0.4-0.3-1-0.5-1.8-0.6s-1.8-0.1-2.9-0.1h-17.5
				v9.8h17.5c1.2,0,2.1,0,2.9-0.1s1.4-0.3,1.8-0.6c0.5-0.3,0.8-0.7,1-1.2s0.3-1.2,0.3-2.1v-1.8H-249z"/>
			<path class="st3" d="M-229.7-346v9.1h-7.1v-32h25.6c2.3,0,4.2,0.2,5.7,0.5c1.5,0.4,2.8,1,3.7,1.8s1.6,1.9,2,3.2
				c0.4,1.3,0.6,2.9,0.6,4.8v2.8c0,1.9-0.2,3.5-0.6,4.7c-0.4,1.3-1,2.3-1.9,3s-2.2,1.3-3.7,1.6c-1.5,0.3-3.5,0.4-5.8,0.4h-18.5V-346
				z M-206.4-358.2c0-1.7-0.4-2.9-1.1-3.5c-0.7-0.6-2.1-0.9-4-0.9h-18.3v10.9h18.4c1.9,0,3.2-0.3,3.9-0.9s1.1-1.7,1.1-3.4
				L-206.4-358.2L-206.4-358.2z"/>
		</g>
	</g>
	<g>
		<g>
			<path class="st3" d="M-862.8-118c0.8-2.9,2.3-6.7,3.3-8.3l2-0.2c-0.8,2.1-1.7,5.7-2.1,8.2L-862.8-118z M-857.6-118
				c0.8-2.9,2.3-6.7,3.3-8.3l2-0.2c-0.8,2.1-1.7,5.7-2.1,8.2L-857.6-118z"/>
			<path class="st3" d="M-826.4-109.5c0,2.4-0.6,4.1-1.9,5.2c-1.3,1.2-3.2,1.8-5.7,1.8h-19.2v-23.9h18.3c2.4,0,4.3,0.6,5.7,1.8
				c1.3,1.2,2,2.9,2,5c0,2.4-0.9,3.9-2.7,4.6c1,0.3,1.8,0.9,2.4,1.7C-826.8-112.3-826.4-111-826.4-109.5z M-830.8-119.7
				c0-1.1-0.3-2-0.8-2.6c-0.7-0.7-1.7-1-3.2-1h-14.8v6.9h14.8c1.5,0,2.6-0.3,3.3-0.9C-831.1-117.8-830.8-118.6-830.8-119.7z
				 M-849.6-113.3v7.6h15.6c1.3,0,2.3-0.4,3-1.1s1-1.6,1-2.7s-0.4-2-1.1-2.7c-0.7-0.7-1.7-1.1-3-1.1
				C-834.1-113.3-849.6-113.3-849.6-113.3z"/>
			<path class="st3" d="M-819.5-109.5c0,1.9,0.5,3,1.6,3.4c1,0.4,3.8,0.7,8.3,0.7s7.3-0.2,8.3-0.7c1-0.4,1.5-1.6,1.5-3.4v-17h3.6v17
				c0,3.3-0.7,5.3-2,6.1c-1.4,0.8-5.3,1.3-11.5,1.3s-10-0.4-11.3-1.2c-1.4-0.8-2.1-2.8-2.1-6.1v-17h3.6L-819.5-109.5L-819.5-109.5z"
				/>
			<path class="st3" d="M-789.6-102.5h-3.6v-23.9h3.6V-102.5z"/>
			<path class="st3" d="M-787-126.5h3.5v20.7h18.4v3.2H-787V-126.5z"/>
			<path class="st3" d="M-744-126.5c3,0,5,0.5,6.1,1.6c1.6,1.6,2.4,5.1,2.4,10.3c0,5.2-0.8,8.7-2.4,10.3c-1.1,1.1-3.1,1.7-6.1,1.7
				h-20.1v-23.9H-744z M-760.5-105.8h16.5c1.9,0,3.2-0.6,3.9-1.8c0.7-1.2,1-3.5,1-7s-0.3-5.8-1-7s-2-1.8-3.9-1.8h-16.5V-105.8z"/>
			<path class="st3" d="M-727-102.5h-3.6v-23.9h3.6V-102.5z"/>
			<path class="st3" d="M-723.7-126.5h5.2l20.5,21v-21h3.6v24h-5.4l-20.4-20.8v20.8h-3.6v-24H-723.7z"/>
			<path class="st3" d="M-687.5-114.5c0,4.4,0.5,7,1.4,7.9c1,0.8,4,1.3,9.1,1.3c5,0,8-0.3,9.1-0.9c1-0.6,1.5-2.4,1.5-5.3h-11.5v-3.2
				h15.1v3.2c0,4.1-0.8,6.7-2.5,7.8c-1.7,1.1-5.6,1.6-11.7,1.6c-6.2,0-10.1-0.7-11.7-2.1c-1.6-1.4-2.4-4.8-2.4-10.3
				c0-5.4,0.8-8.9,2.4-10.3c1.6-1.4,5.5-2.1,11.7-2.1c6.1,0,10,0.5,11.7,1.4s2.5,3.2,2.5,6.8h-3.6c0-2.3-0.6-3.7-1.7-4.2
				c-1.1-0.5-4.1-0.7-9-0.7c-5.2,0-8.2,0.4-9.2,1.2C-687-121.5-687.5-118.9-687.5-114.5z"/>
			<path class="st3" d="M-618.8-109.5c0,2.4-0.6,4.1-1.9,5.2c-1.3,1.2-3.2,1.8-5.7,1.8h-19.2v-23.9h18.3c2.4,0,4.3,0.6,5.7,1.8
				c1.3,1.2,2,2.9,2,5c0,2.4-0.9,3.9-2.7,4.6c1,0.3,1.8,0.9,2.4,1.7C-619.2-112.3-618.8-111-618.8-109.5z M-623.2-119.7
				c0-1.1-0.3-2-0.8-2.6c-0.7-0.7-1.7-1-3.2-1H-642v6.9h14.8c1.5,0,2.6-0.3,3.3-0.9C-623.5-117.8-623.2-118.6-623.2-119.7z
				 M-642.1-113.3v7.6h15.6c1.3,0,2.3-0.4,3-1.1s1-1.6,1-2.7s-0.4-2-1.1-2.7c-0.7-0.7-1.7-1.1-3-1.1
				C-626.6-113.3-642.1-113.3-642.1-113.3z"/>
			<path class="st3" d="M-615.5-126.5h22.9v3.2h-19.3v7h18.7v3.2h-18.7v7.3h19.3v3.2h-22.9V-126.5z"/>
			<path class="st3" d="M-589.3-126.5h25v3.2H-575v20.7h-3.6v-20.7h-10.7V-126.5z"/>
			<path class="st3" d="M-563.2-126.5h25v3.2h-10.7v20.7h-3.6v-20.7h-10.7V-126.5z"/>
			<path class="st3" d="M-537.1-126.5h22.9v3.2h-19.3v7h18.7v3.2h-18.7v7.3h19.3v3.2h-22.9V-126.5z"/>
			<path class="st3" d="M-489-126.5c2,0,3.6,0.7,4.7,2.1s1.6,3.3,1.6,5.6c0,2-0.3,3.5-0.9,4.4c-0.4,0.7-1.2,1.3-2.1,1.7
				c0.9,0.4,1.5,0.8,2,1.4c0.7,0.8,1,1.8,1,2.9v5.9h-3.5v-5.9c0-0.8-0.4-1.5-1.1-2c-0.8-0.5-1.7-0.8-2.8-0.8h-16.8v8.6h-3.6v-23.9
				C-510.5-126.5-489-126.5-489-126.5z M-506.9-114.4h16.5c1.3,0,2.3-0.2,2.9-0.7c0.9-0.6,1.3-1.9,1.3-3.7c0-1.8-0.5-3.1-1.4-3.7
				c-0.6-0.4-1.6-0.7-2.9-0.7H-507v8.8H-506.9z"/>
			<path class="st3" d="M-451.8-106h0.4l8.8-20.4h3l8.7,20.4h0.4l9.2-20.4h3.8l-10.8,23.9h-4.6l-8.3-19.1l-8.2,19.1h-4.5l-10.9-23.9
				h3.8L-451.8-106z"/>
			<path class="st3" d="M-400-102.2c-5,0-8.4-0.3-10.4-1c-2-0.6-3.2-1.8-3.8-3.6c-0.4-1.2-0.6-3.8-0.6-7.7c0-3.9,0.2-6.5,0.5-7.7
				c0.5-1.8,1.8-3.1,3.8-3.7c2-0.7,5.5-1,10.4-1c5,0,8.4,0.3,10.4,0.9c2,0.7,3.2,1.9,3.8,3.7c0.4,1.2,0.6,3.8,0.6,7.7
				c0,3.9-0.2,6.5-0.5,7.6c-0.5,1.8-1.8,3-3.8,3.7C-391.6-102.5-395-102.2-400-102.2z M-400-105.4c5.5,0,8.7-0.4,9.7-1.2
				c1-0.8,1.5-3.4,1.5-7.8s-0.5-7.1-1.4-7.9c-1-0.8-4.2-1.2-9.8-1.2c-5.5,0-8.8,0.4-9.7,1.2c-1,0.8-1.5,3.4-1.5,7.9
				c0,4.4,0.5,7,1.5,7.8C-408.8-105.8-405.5-105.4-400-105.4z"/>
			<path class="st3" d="M-361.9-126.5c2,0,3.6,0.7,4.7,2.1s1.6,3.3,1.6,5.6c0,2-0.3,3.5-0.9,4.4c-0.4,0.7-1.2,1.3-2.1,1.7
				c0.9,0.4,1.5,0.8,2,1.4c0.7,0.8,1,1.8,1,2.9v5.9h-3.5v-5.9c0-0.8-0.4-1.5-1.1-2c-0.8-0.5-1.7-0.8-2.8-0.8h-16.8v8.6h-3.6v-23.9
				C-383.4-126.5-361.9-126.5-361.9-126.5z M-379.8-114.4h16.5c1.3,0,2.3-0.2,2.9-0.7c0.9-0.6,1.3-1.9,1.3-3.7
				c0-1.8-0.5-3.1-1.4-3.7c-0.6-0.4-1.6-0.7-2.9-0.7h-16.5v8.8H-379.8z"/>
			<path class="st3" d="M-352.4-126.5h3.5v20.7h18.4v3.2h-21.9V-126.5z"/>
			<path class="st3" d="M-309.4-126.5c3,0,5,0.5,6.1,1.6c1.6,1.6,2.4,5.1,2.4,10.3c0,5.2-0.8,8.7-2.4,10.3c-1.1,1.1-3.1,1.7-6.1,1.7
				h-20.1v-23.9H-309.4z M-325.9-105.8h16.5c1.9,0,3.2-0.6,3.9-1.8c0.7-1.2,1-3.5,1-7s-0.3-5.8-1-7s-2-1.8-3.9-1.8h-16.5V-105.8z"/>
			<path class="st3" d="M-283.5-116c5.6,0,9.1,0.3,10.5,1c1.8,0.8,2.7,2.8,2.7,5.9c0,2.9-1.1,4.9-3.3,5.8c-1.8,0.7-5.4,1.1-10.8,1.1
				c-5.9,0-9.6-0.6-11.3-1.9c-1.3-1-1.9-3.1-1.9-6.4h3.6c0,2.3,0.5,3.7,1.5,4.2c1,0.6,3.7,0.9,8.2,0.9c4.4,0,7.2-0.2,8.5-0.6
				s1.9-1.4,1.9-3s-0.5-2.6-1.4-3c-1-0.4-3.7-0.6-8.2-0.6c-5.5,0-9.2-0.7-11.1-2c-1.4-1-2.2-2.8-2.2-5.4c0-2.8,0.9-4.7,2.6-5.5
				s5.3-1.2,10.6-1.2c5.3,0,8.9,0.6,10.5,1.9c1.3,1,2,3,2,6h-3.5c0-2-0.5-3.3-1.6-3.9s-3.5-0.8-7.5-0.8c-3.4,0-5.4,0-6.2,0.1
				c-2.3,0.3-3.5,1.4-3.5,3.3c0,1.6,0.6,2.7,1.9,3.3C-290-116.2-287.4-116-283.5-116z"/>
			<path class="st3" d="M-263.8-126.5c-0.8,2.9-2.3,6.7-3.3,8.3l-2,0.2c0.7-2.1,1.7-5.7,2.1-8.2L-263.8-126.5z M-258.6-126.5
				c-0.8,2.9-2.3,6.7-3.3,8.3l-2,0.2c0.8-2.1,1.7-5.7,2.1-8.2L-258.6-126.5z"/>
		</g>
	</g>
</g>
<text transform="matrix(1 0 0 1 102.2399 923.8476)" class="st3" style="font-family:'NeuropoliticalRg-Regular'; font-size:72px;">WEYLAND-YUTANI CORP</text>
</svg>
